<?xml version="1.0"?>
<svg xmlns:rdf="http://www.w3.org/1999/02/22-rdf-syntax-ns#" xmlns="http://www.w3.org/2000/svg" xmlns:cc="http://web.resource.org/cc/" xmlns:xlink="http://www.w3.org/1999/xlink" xmlns:dc="http://purl.org/dc/elements/1.1/" id="Layer_1" xml:space="preserve" overflow="visible" viewBox="0 0 268.146 301.625" version="1.1" enable-background="new 0 0 268.146 301.625">
	<path d="m208.15 46.264c-3.745-0.259-6.389-5.77-7.682-10.08 3.41 2.501 4.69 7.14 7.68 10.08z"/>
	<path d="m223.02 51.064c4.021 3.81 5.773 13.888 2.88 19.2 0.34-7.694-0.59-14.121-2.88-19.2z" fill="#fff"/>
	<path d="m229.74 51.064c1.495 1.545 2.688 3.393 2.88 6.24-1.86-1.171-1.96-4.115-2.88-6.24z" fill="#fff"/>
	<path d="m173.58 52.504c2.084 0.73 0.271 3.498 0.48 5.28-1.09-0.822-0.17-3.664-0.48-5.28z" fill="#fff"/>
	<path d="m222.55 54.904c1.109 0.491 0.992 2.207 0.96 3.84-0.72-0.888-0.92-2.281-0.96-3.84z" fill="#fff"/>
	<path d="m176.94 55.384c2.53 6.314-1.847 13.323-8.64 13.44 4.598-0.362 4.478-5.442 8.158-6.72-0.03-2.432 0.83-3.975 0.48-6.72z" fill="#fff"/>
	<path d="m218.23 55.864c0.977 0.463 1.036 1.843 0.96 3.36-0.98-0.463-1.04-1.844-0.96-3.36z" fill="#fff"/>
	<path d="m181.74 57.304c1.229 0.054 0.953 1.607 0.96 2.88-1.22-0.054-0.95-1.607-0.96-2.88z" fill="#fff"/>
	<path d="m187.02 57.304c1.853 0.539 1.007 2.346 0.96 3.84-0.75-0.841-0.64-2.558-0.96-3.84z" fill="#fff"/>
	<path d="m114.54 62.104c1.274 1.125 1.31 3.492 2.4 4.8h-2.4c0.14-2.527-0.5-2.846 0-4.8z" fill="#fff"/>
	<path d="m228.31 62.104c0.631 0.489 1.77 0.47 2.397 0.96v6.24c-0.698 1.729-0.323-4.068-1.438-1.92-1.19-1.651-0.56-2.532-0.96-5.28z" fill="#fff"/>
	<path d="m146.23 62.584c5.358 0.559 12.385-0.545 15.84 1.92-4.76-0.123-13.29 1.103-15.84-1.92z"/>
	<path d="m111.19 66.424c2.025 1.173 2.743 3.657 5.76 3.84-2.62 1.321-5.3-1.412-5.76-3.84z" fill="#fff"/>
	<path d="m148.62 69.304c0.542-0.578 1.37-0.87 0.96-2.4 3.161 1.218 7.428 3.695 7.683 6.24-3.28-0.884-4.5-5.269-8.64-3.84z"/>
	<path d="m223.98 68.824c0.491 0.879 1.16 8.002 0.479 10.08-1.25-3.315-0.41-6.064-0.48-10.08z" fill="#fff"/>
	<path d="m228.31 69.304c0.604 0.447 1.057 5.373 0.479 6.24-1.11-1.136-0.18-4.308-0.48-6.24z" fill="#fff"/>
	<path d="m232.62 69.784h1.44c-0.336 1.478-0.336 0.922 0 2.4-1.88 0.608-1.42-1.132-1.44-2.4z" fill="#fff"/>
	<path d="m144.31 71.224c2.085-0.633 4.322 2.707 4.8 5.28-2.13-1.234-3.15-3.579-4.8-5.28z"/>
	<path d="m158.7 73.624c1.894-0.292 2.126 1.074 2.4 2.4-1.7 0.109-2.5-0.691-2.4-2.4z"/>
	<path d="m194.23 99.544c2.705-6.229 1.938-11.894-1.92-16.8-0.312-2.57 0.354-6.116-2.882-5.76-1.001 0.76-0.16 3.358-0.96 4.32-1.766 0.87-3.614 2.863-5.761 1.92 4.916 1.752 7.57 6.293 5.761 13.44-2.551 2.535-7.097 6.974-11.521 3.36 0.112-3.319 2.718-4.192 2.88-7.2 0.175-3.236-3.365-6.667-1.438-10.56 1.265-0.145 1.573 0.665 1.438 1.92 2.926-2.791 6.068-10.165 10.562-10.08 0.479 0.009 3.725 1.432 4.317 1.92 5.17 4.247 4.49 18.527-0.48 23.524zm-15.37 0c4.009 1.611 7.403-2.813 7.2-6.24-1.96 2.513-6.04 2.909-7.2 6.24z"/>
	<path d="m158.7 82.744c0.086 3.292-3.973 3.241-5.279 1.44-0.68-2.902 3.64-4.459 5.28-1.44z"/>
	<path d="m100.62 87.544c-2.11 1.125-7.685 0.279-11.52 0.96 2.483-2.037 8.309-2.341 11.52-0.96z"/>
	<path d="m99.666 92.824c-3.656-0.224-9.823-0.709-16.318-0.48 2.159-1.987 15.364-6.68 16.318 0.48z"/>
	<path d="m191.82 96.664h1.44c-1.165 4.915-4.231 7.928-8.643 9.6 1.43-4.1 5.87-3.64 7.2-9.596z"/>
	<path d="m70.385 98.104c4.854 0.107 10.258-0.336 14.4 0.48 1.126 4.111 2.729 9.911 2.88 13.44-4.042 0.599-3.54-3.963-5.28-6.24-2.213-2.897-4.994-4.575-10.078-4.8-0.3-1.297-2.007-1.191-1.922-2.876z" fill="#fff"/>
	<path d="m52.625 110.58c-2.376 3.793-6.54-2.733-10.08 0.48 1.09-5.1 6.905-0.51 10.08-0.48z"/>
	<path d="m105.42 112.98c-6.014 2.383-8.053 9.942-15.358 9.6 2.128-6.19 8.452-8.19 15.358-9.6z" fill="#fff"/>
	<path d="m35.825 116.82c1.976 1.384 5.759 0.961 8.16 1.92-1.542 2.139-2.994 4.366-3.36 7.68h-5.76c-0.189-4.77 1.26-5.01 0.96-9.6z" fill="#fff"/>
	<path d="m69.905 120.66c0.75-1.107 0.75 4.315 0 4.8-1.137-1.9 0.27-2.34 0-4.8z" fill="#fff"/>
	<path d="m67.985 120.66c1.146 1.335 0.381 4.84-0.48 5.76-1.702-0.58 0.158-4.19 0.48-5.76z" fill="#fff"/>
	<path d="m66.065 122.1c-0.118 1.482-0.487 2.713-0.96 3.84-1.317 0.04-0.871-4.1 0.96-3.84z" fill="#fff"/>
	<path d="m28.146 123.06c1.302 4.867-3.535 11.095 0.479 14.4-0.775 1.896-2.203 2.223-0.96 5.28-1.553 0.593-0.367-1.553-1.92-0.96-0.258-7.76 0.189-12.86 2.401-18.72z" fill="#fff"/>
	<path d="m83.825 124.5c0.414 7.421-2.203 15.588-5.76 21.6 1.381-5.88 4.756-13.75 5.76-21.6z"/>
	<path d="m225.43 127.86c2.116 0.763 2.923 2.838 4.319 4.32-8.102 0.352-9.479 11.358-15.357 12.96-0.7 0.191-1.647-2.593-1.922 0-1.764-3.209 5.924-4.836 6.722-8.64 2.286 0.046 1.92-2.56 4.318-2.4 0.09-2.62 1.6-3.83 1.92-6.24z" fill="#fff"/>
	<path d="m66.065 128.34c0.942 2.555-1.433 5.921-2.4 8.16-1.181-1.99 1.832-5.09 2.4-8.16z" fill="#fff"/>
	<path d="m78.545 133.62c1.572 2.87-1.025 8.97-2.88 11.52-0.871-3.75 2.822-7.09 2.88-11.52z"/>
	<path d="m27.666 144.18c1.026-1.455 0.905 2.257 3.36 0.96 0.493 1.613-1.493 0.748-2.4 0.96-0.666-0.29-0.073-1.84-0.96-1.92z" fill="#fff"/>
	<path d="m56.465 146.1c0.651 0.148 0.398 1.202 0.48 1.92-1.712 0.688-3.974 0.826-5.76 1.44 1.058-1.82 4.866-0.89 5.28-3.36z" fill="#fff"/>
	<path d="m37.266 147.06c3.044-0.65 5.128 1.701 9.6 0.48-2.448 2.3-7.331 1.1-9.6-0.48z" fill="#fff"/>
	<path d="m24.786 154.26c1.339 3.062 7.033 0.686 8.64-0.479-2.392-2.244 0.745-5.302 0.962-6.24h2.398c1.461 2.575 1.447 5.341 0.48 8.641-5.875 1.102-26.177 8.42-25.44-1.92 0.563-7.924 12.308-6.137 20.16-6.721-1.953 2.047-7.99 0.01-7.2 4.801 1.456 0.176 0.996-1.563 1.44-2.401h5.278c0.292 1.147-0.603 3.483 0.48 3.84-1.429 1.48-4.388 0.92-7.198 0.48z" fill="#fff"/>
	<path d="m49.746 148.98c-0.653 1.427-3.315 0.843-5.28 0.96-0.528-0.71 3.912-0.54 5.28-0.96z" fill="#fff"/>
	<path d="m39.186 149.46c1.515-0.235 1.693 0.865 3.358 0.48-0.114 0.7-3.949 1.12-3.358-0.48z" fill="#fff"/>
	<path d="m55.985 149.94c-3.167 1.736-6.412 2.708-10.562 1.44 3.119-0.57 8.334-1.58 10.562-1.44z" fill="#fff"/>
	<path d="m72.786 149.46c-1.362 1.519-2.135 3.625-4.8 3.841 1.778-1.1 2.45-3.31 4.8-3.84z"/>
	<path d="m224.47 152.34c0.336 1.662-1.684 1.724-2.398 0.962 0.07-1.04 1.2-1.03 2.4-0.96z"/>
	<path d="m54.065 152.82c-0.054 1.227-1.607 0.951-2.88 0.961 0.054-1.22 1.608-0.95 2.88-0.96z" fill="#fff"/>
	<path d="m55.505 169.14c-0.806 2.307 0.877 6.092 0 9.119 1.517 1.215 1.365-2.158 2.88 0-2.877-5.285-1.493-15.22 1.922-20.64 3.282 0.403 3.327-2.433 6.72-1.92-1.45 4.562-7.034 6.366-4.32 12.479 1.027-2.334 0.028-6.691 2.88-7.201 0.25 1.197 0.056 2.354 0.96 3.842-1.35-0.07-1.384 1.176-1.438 2.398 4.771 2.039 0.74 10.125-0.96 13.92 1.114 1.274 1.285-1.271 2.398 0 2.209 7.455 0.903 13.387-5.76 15.36-11.665-2.147-12.735-14.075-5.76-21.601-0.386-2.174-1.77-3.354-2.4-5.28 0.856-1.414 3.158-2.824 3.36 0-0.41 0.09-0.454-0.18-0.482-0.48zm-2.4 12.48c-0.163 1.562-2.545 2.494-0.96 4.318 2.432 0.672 1.316-2.201 3.358-1.92-0.098 3.139 0.74 5.342 2.4 6.721 1.954-2.189-2.276-4.264-0.48-6.24 1.676 0.564 1.053 3.43 3.36 3.359-1.003-3.156-2.639-5.682-4.8-7.68 0.537 2.86-1.306 1.52-2.878 1.44z" fill="#fff"/>
	<path d="m51.186 159.54c0.816 1.867-2.017 3.688-0.48 6.72-2.164 0.352-4.833 1.27-6.72 0.479 1.21-1.254 2.243-0.545 4.8-0.959 1.261-0.724 1.251-4.521 0.96-5.281-2.238 0.892-4.895 1.24-6.72 1.438 1.305-2.21 5.915-1.12 8.16-2.4z"/>
	<path d="m151.51 167.22c1.02 1.729 2.067 5.647 0.479 7.198-1.07-0.76-0.65-3.82-0.48-7.2z"/>
	<path d="m49.266 172.02c0.104 1.336-1.77 3.803-0.48 6.721h-2.398c1.857-0.861 0.243-5.195 1.92-6.24-2.978 0.545-5.865 1.178-6.24 4.32-2.053-4.13 3.447-4.86 7.198-4.8z"/>
	<path d="m55.985 180.18c2.162 2 3.797 4.522 4.8 7.682-2.309 0.068-1.686-2.795-3.36-3.359-1.796 1.977 2.436 4.051 0.48 6.24-1.66-1.381-2.498-3.584-2.4-6.723-2.042-0.281-0.928 2.594-3.358 1.92-1.585-1.824 0.797-2.756 0.96-4.318 1.57 0.08 3.413 1.42 2.878-1.44z"/>
	<path d="m192.31 180.18c-0.548 2.659-4.327 6.229-7.2 8.159 1.72-3.39 5.08-5.15 7.2-8.16z" fill="#fff"/>
	<path d="m193.27 185.46c0.903 1.613-2.176 1.572-0.48 2.4-2.49 0.549-3.19 2.887-5.279 3.84 1.64-2.35 2.85-5.14 5.76-6.24z" fill="#fff"/>
	<path d="m32.945 187.38c-0.254 0.386-0.5 0.779-0.48 1.439-0.859 0.061-1.012-0.589-1.92-0.48 0.071-1.05 1.21-1.03 2.4-0.96z" fill="#fff"/>
	<path d="m26.706 196.98c3.629-0.9 7.833 1.764 11.521 2.399-3.091 0.37-8.23-1.36-11.521-2.4z"/>
	<path d="m43.985 200.34c1.375-0.094 2.62-0.059 2.398 1.441-0.834-0.44-2.574 0.02-2.398-1.44z"/>
	<path d="m125.58 200.34c1.03 0.722-0.344 1.175 0.48 2.4-1.712 0.526-2.438 2.043-4.32 2.399-0.87-2.01 3.11-2.84 3.84-4.8z" fill="#fff"/>
	<path d="m51.186 201.3c2.065 1.271 6.095-1.158 7.2 1.438-2.504-0.37-6.066 0.31-7.2-1.44z"/>
	<path d="m65.585 202.26c-0.355 1.084-2.69 0.188-3.84 0.479 0.626-1.32 2.595-0.96 3.84-0.48z"/>
	<path d="m41.105 203.7c1.478-0.357 0.922 1.316 2.398 0.959-0.723 0.717-0.144 2.736-1.92 2.398 0.837-0.979-0.355-0.939 0.48-1.92-0.31-0.49-1.101-0.49-0.958-1.44z" fill="#fff"/>
	<path d="m125.58 203.7c0.846 0.113 1.096 0.824 0.96 1.92-0.63 0.615-1.77 0.615-2.398 0 0.15-0.97 1.3-0.94 1.44-1.92z" fill="#fff"/>
	<path d="m118.86 211.86h1.44c0.818 2.529 1.149 5.914 3.358 8.158-2.87 0.48-5-3.95-4.8-8.16z"/>
	<path d="m109.75 213.78h5.28c-0.513 1.793 1.19 1.367 0.96 2.879-2.75-0.29-5.19-0.89-6.24-2.88z"/>
	<path d="m67.025 215.7c1.448 0.021 1.488 3.92-0.48 3.357-0.384-1.66 0.715-1.84 0.48-3.36z" fill="#fff"/>
	<path d="m163.02 216.18c0.562 0.078 0.405 0.875 0.479 1.44-0.896 0.383-1.759 0.801-2.881 0.959 0.4-1.2 1.69-1.52 2.4-2.4z"/>
	<path d="m47.825 217.14c0.71 0.25 1.21 0.711 1.92 0.959 0.062 0.86-0.588 1.014-0.479 1.92-0.652-0.146-0.398-1.199-0.48-1.92-0.845 0.117-1.094 0.826-0.96 1.92-1.069-0.2-0.376-2.54-0.001-2.88z" fill="#fff"/>
	<path d="m48.306 220.5c0.406-0.088 0.451 0.188 0.479 0.479 0.077 0.562 0.875 0.404 1.44 0.479-1.07 0.414-3.542 2.18-1.44 2.881-0.072 1.193-1.625 0.141-1.92 0 0.432-1.404 0.432-1.475 0-2.881 0.964 0.17 1.502-0.1 1.441-0.96z" fill="#fff"/>
	<path d="m102.06 222.9c1.205 0.715 2.644 1.195 3.358 2.398 0.585 1.745-2.344 1.887 0.48 1.92 0.153 1.112-0.077 1.844-0.48 2.399-1.904-0.494-2.334-2.465-4.318-2.879v-2.4c1.188 0.248 1.71 1.171 2.398 1.921 1.2-0.92-1.64-1.84-1.44-3.36z"/>
	<path d="m110.23 223.86c-0.271 2.393 0.709 4.178 1.438 6.719-2.916-1.244-4.277-4.041-5.278-7.199 1.15-1.09 2.9-0.08 3.84 0.48z"/>
	<path d="m159.19 223.86c-1.016 0.426-0.834 2.045-2.4 1.92v-1.441c1.15 0.2 1.04-0.87 2.4-0.48z" fill="#fff"/>
	<path d="m101.1 233.46c2.883 1.916 3.625 5.976 6.24 8.16-4.04-0.67-8.358-4.28-6.24-8.16z"/>
	<path d="m98.706 244.5c-0.123 4.765 3.482 5.797 5.28 8.642-4.062-1.381-7.617-3.265-8.16-8.16 0.563-0.55 1.692-0.54 2.876-0.48z"/>
	<path d="m85.266 252.66c-1.364-0.557-2.852-0.99-2.88-2.879 1.74-1.58 3.998 1.61 2.88 2.88z" fill="#fff"/>
	<path d="m80.465 251.7c1.72 0.199 2.312 1.529 2.4 3.357-0.854 0.428-1.22 1.342-2.88 0.961-0.312-1.703-1.811-2.222-0.96-3.84 0.682 0.04 1.36 0.08 1.44-0.48z" fill="#fff"/>
	<path d="m19.025 257.46h1.438v1.92c-1.6 0.49-1.571-0.66-1.438-1.92z" fill="#fff"/>
	<path d="m75.666 258.42c0.81 0.802 2.052 2.606 0.96 3.841-1.494-0.1-0.812-2.38-0.96-3.84z" fill="#fff"/>
	<path d="m92.465 259.86c1.832 1.199 5.724 4.402 3.36 6.719-0.5-2.061-2.138-2.98-2.88-4.799-0.691 0.27-1.171 0.748-1.44 1.438-0.505 2.104 1.624 1.577 1.44 3.36-1.933 0.492-2.132-0.748-2.88-1.44-1.405-0.125-1.477 1.086-2.88 0.961 0.176 1.424 0.832 2.367 1.92 2.879-1.786 1.285-4.152-0.949-3.84-3.357 3.284-1.03 5.759-2.88 7.2-5.76z"/>
	<path d="m103.98 263.22c2.183 0.758-0.715 1.717-0.96 2.879-1.3-0.72 0.77-2.07 0.96-2.88z"/>
	<path d="m79.505 264.18c-0.793 1.741 3.654 1.135 3.36 4.801-1.31 0.35-0.966-0.953-1.92-0.961-0.521 0.119-0.326 0.955-0.96 0.961 0.332 1.504 1.28 0.625 2.398 0.479 0.188 1.463-1.262 2.443 0.48 2.879 1.396-0.416 0.54-0.719 0.48-1.92 1.648 0.111 2.092 1.431 2.398 2.882-4.896 1.209-5.794-3.57-8.64-5.761-0.208-2.13 0.273-3.57 2.404-3.36z"/>
	<path d="m70.385 267.54c1.149 3.289 1.686 4.802-0.479 7.199-2.219-0.5-2.75-2.688-3.36-4.802 2.383 0.31 1.587-2.57 3.839-2.4z" fill="#fff"/>
	<path d="m103.02 272.82c-2.465 0.385-3.646-0.516-5.28-0.959 0.344-3.68 5.17-2.08 5.28 0.96z" fill="#fff"/>
	<path d="m91.985 269.94c0.825 1.981-2.176 2.572-2.88 1.438-0.044-1.48 1.45-1.43 2.88-1.44z"/>
	<path d="m83.825 273.78c1.462 0.297 0.938 2.58 2.4 2.879 0.648-0.471 0.622-1.617 1.438-1.92 1.788-0.014 3.129 4.949 0.96 5.76-0.276-1.559 0.327-2.232 0.48-3.359-1.5-0.221-1.535 1.025-1.44 2.4-1.621-1.27-5.355-4.41-3.838-5.76z"/>
	<path d="m106.86 273.78c-0.969 1.109-1.595 2.562-3.36 2.879 0.4-1.68 1.92-2.24 3.36-2.88z"/>
	<path d="m109.27 274.26c0.067 1.51-1.231 1.649-2.4 1.92 0.61-0.82 0.99-1.88 2.4-1.92z"/>
	<path d="m102.54 292.02c-1.11 2.785-6.426 2.641-9.12 2.399 3.726-1.71 5.281-2.4 9.12-2.4z" fill="#fff"/>
	<path d="m228.31 102.9c-1.408-0.033-1.783-1.097-2.4-1.92-2.346 1.814-2.963 5.356-7.2 5.28-3.814 4.107-1.791 12.278 4.801 11.52 2.304 6.178 7.257 9.705 10.562 14.88 6.437 2.364 10.375 7.225 13.438 12.96 8.163 3.356 15.656 7.383 20.642 13.92-0.07 1.049-1.209 1.029-2.4 0.959 2.794 18.483-5.153 32.326-3.84 48.479-1.253 2.105-2.312 4.408-3.359 6.722 6.562 3.389-0.42 20.021-3.841 24.479-0.125 1.403 1.086 1.475 0.96 2.879-2.391 2.891-4.433 6.129-6.72 9.121 1.194 4.272-1.877 7.896-4.8 9.602-0.462 1.74 2.156 0.4 1.92 1.92-0.041 0.682-0.079 1.357 0.479 1.438-5.396 9.645-11.449 18.631-20.641 24.479-1.797 0.037-1.638-1.883-1.92-3.358-2.287 1.071-2.658 4.062-5.76 4.319-4.006-2.127-1.208-8.844 0.96-10.562-5.311 3.816-10.17 5.888-16.8 7.681 1.493 2.411 0.296 3.021-0.962 4.801-1.854-1.666-4.441-2.599-4.801-5.76-4.923-4.839-12.205-9.873-13.92-16.32-4.156-2.723-8.051-5.709-11.52-9.12-0.735-2.785-1.564-5.476-4.802-5.761 2.27 4.933 2.347 12.058 5.279 16.319 1.255-0.666-0.231-4.073 0.96-4.801 2.479-0.078 2.893 1.91 3.36 3.842 3.136 4.543 8.012 7.349 8.64 14.398 0.175 2.096-2.869 0.971-2.397 3.359 3.39-0.188 7.913 0.918 8.64 4.801-0.62 0.979-1.985 1.213-2.399 2.398-12.442-0.764-21.034 2.324-30.721 4.319-0.561-2.159-1.867-3.571-1.92-6.239-4.356 2.203-5.699 7.42-12.479 7.199 4.859-6.144 13.108-14.229 17.277-23.039 3.487-7.369 7.772-18.474 0.96-23.041-6.706 20.174-17.996 35.766-34.08 46.562 0.557-3.498 3.614-8.51 4.32-13.439-3.003 4.014-3.838 8.137-5.76 12.479-3.566-6.697-13.624-1.367-20.642-3.84 3.429-7.935 11.688-11.031 16.802-17.279-10.98 4.22-13.994 16.406-26.88 18.72-18.751-4.608-29.474-17.247-34.562-35.521 1.466-1.414-0.319-4.084 0.96-6.24-2.879 0.643-1.836 5.205-2.88 7.682 4.427 11.092 9.929 21.109 17.76 28.799-2.34-0.85-1.61 0.383-3.358 0.961-0.346 1.304 2.263-0.344 1.92 0.961-0.921 2.279-3.938-1.01-3.84-2.881h1.92c-0.302-1.024-2.955-0.449-3.36 0-0.795 0.484-0.521 2.039-0.96 2.881-15.976-0.719-32.112 0.658-50.4 0-1.749-0.812-1.927-3.192-4.8-2.881-0.585-4.785-3.039-5.041-2.88-10.08-6.383-6.114-8.058-17.334-3.84-27.358 4.248-10.099 18.597-19.265 20.16-28.319 0.151-0.888-1.459-1.718 0-2.398 1.603 1.436 2.971 3.107 4.8 4.318 0.22 1.969-1.025-0.195-2.4 0.479 0.035 4.766 0.034 9.565 3.36 11.039 5.087-2.752 10.854-4.826 12.96-10.562 0.453-0.889-2.747-0.293-0.96-0.959-0.074-2.115 1.355-0.137 1.92 0 0.988-0.133 0.452-1.789 1.44-1.921-4.104-1.825-7.836 3.692-6.722 5.761-2.125-1.674-7.752 1.435-9.6-2.399 12.329 2.766 14.768-13.942 12-22.08-3.11 1.771-2.135 5.455-3.84 9.121-1.202-0.062-1.503-0.916-1.92 0.479-0.729-3.787 2.297-9.521-0.48-13.439-4.994 2.047-3.64 10.439-9.6 11.521 1.011-2.188 2.872-3.529 4.318-5.281-1.283-2.104-0.933-4.912 0.48-6.719-1.165-2.836-5.289-2.712-7.68-4.32-0.625 1.136-0.803 2.72-1.44 3.841-0.651-0.147-0.398-1.201-0.479-1.92-0.648 0.471-0.96 1.28-1.44 1.92-1.604-1.328 0.918-2.57 0.479-4.32-1.514-1.758-3.621-0.766-4.318-3.84-4.253-0.418-9.299 1.656-11.04-1.92 6.92 1.541 18.98-0.229 14.88-8.16-1.555 0.687-1.985 2.496-1.92 4.802-1.978-0.041-1.429-2.601-0.96-3.841-2.827-0.269-3.239 1.881-4.8 2.879-1.046-1.004 0.238-1.368 0-2.879-6.918-0.866-13.146 0.088-12 5.279 0.921 4.176 7.155 6.389 11.52 8.159-1.475 3.195 2.345 6.072 5.76 7.199-0.128 7.488 2.934 11.789 8.16 13.92 0.05 1.65 0.248 3.449-0.96 3.843-3.743-5.06-8.446-9.154-9.6-16.802-3.085-0.569-3.602-4.758-6.722-7.198-1.433-1.123-3.756-1.134-5.278-2.4-0.739-0.614-0.192-1.498-0.96-2.399-1.46-1.715-3.479-1.906-3.84-3.359-2.312-9.303 8.987-8.803 16.8-8.16-3.181-1.691-0.541-6.291 0.96-7.68-4.185-1.773-6.553-9.248-2.88-13.439-1.707-0.854-3.609-1.512-4.802-2.881-2.764-10.789 4.797-14.478 15.36-13.439-2.936-5.066-2.837-13.483-0.479-19.2-5.103 1.461-10.953-2.7-10.08-8.64 1.131 0.011 1.413-0.827 2.88-0.48-1.45 4.026 0.787 7.485 3.358 7.68 2.602 0.197 3.022-2.863 6.24-4.8 0.603-0.362 1.967-0.099 2.4-0.48 3.869-3.407 5.949-9.663 10.56-9.12 0.34 2.26-2.437 1.403-2.88 2.88 5.062 1.02 10.898 1.262 16.32 1.92 2.914-1.172-0.148-3.244 0.479-4.32 4.359 1.583 0.855 7.117 1.92 11.52 4.835 4.253 9.345-3.109 7.2-9.12 8.44-3.128 18.776 3.368 25.44 6.72 0.968-0.632 1.624-1.576 1.92-2.88-0.995-4.765-7.902-3.617-9.12-8.16 0.427 0.295 0.857 0.58 0.96 0-1.788-4.133-4.4-7.439-10.561-7.2-3.34-5.163-10.771-1.967-15.841-3.36-1.603 0.157-2.693 0.825-3.358 1.92-6.668-2.067-14.836-1.161-20.642 1.44-0.438 5.482-6.244 5.595-9.6 8.16-0.526 1.394-0.433 3.406-0.96 4.8-1.275-0.005-2.741 0.181-3.36-0.479 0.756-5.644 4.92-7.88 9.602-9.6 2.649-7.001 16.111-9.625 23.04-5.28 0.721-0.719 2.021-0.859 2.398-1.92-1.045-1.035-2.227-1.934-3.84-2.4-14.348-15.224 7.243-28.417 24.96-24.48 7.317-6.283 17.612-9.588 23.521-17.28-5.103-7.507 0.417-15.586 2.88-19.68 10.256-9.104 18.588-20.132 31.68-26.4 8.814-5.073 5.765-4.025 13.44-6.24 1.084-0.269 4.228-0.882 5.111-1.069 6.156-0.653 7.243-0.664 11.207-0.372 3.812 0.281 24.993 3.56 39.359 14.4 10.258 5.258 17.582 18.778 26.399 28.8 2.189 2.49 6.353 10.34 7.681 13.92 4.539 12.229 0.71 30.141-3.84 40.32-1.83 1.208-2.52 3.561-3.83 5.281zm-10.08-62.396c-2.83-2.294-6.913-5.882-6.722-9.6 2.617 2.464 4.809 8.396 8.642 6.72-1.87-0.484-0.074-1.652-0.48-3.36-1.478-0.357-0.922 1.318-2.397 0.96-1.089-1.96-4.812-3.815-3.841-6.24 1.964 0.917 2.551 3.209 4.318 4.32-12.23-20.316-34.828-32.924-67.68-29.76-4.104 1.976-9.312 2.85-12.48 5.76-13.076 5.644-24.18 13.26-30.72 25.44-2.561 0.319-2.423 3.337-4.8 3.84-0.808 2.506-0.714 5.858 1.92 6.24-0.192-1.792 0.384-2.816 1.92-2.88 2.084 0.316 1.519 3.281 2.88 4.32 5.177-0.629 8.363-3.417 13.44-6.24 4.06-2.257 8.169-5.217 11.52-5.76 2.226-0.36 8.335-0.157 8.643 4.8-7.485-6.646-18.957 1.526-21.603 6.72-3.087 0.533-7.38 6.245-13.438 3.84 0.972 2.708 2.099 5.261 4.8 6.24 6.326-1.567 14.604 0.764 20.16 2.88 5.52-1.695 11.616 0.809 16.8-0.48-1.707 2.773-7.824 1.136-10.08 3.36 1.46 0.46 4.868-1.028 4.8 0.96h-5.279c5.674 3.487 15.28 8.025 14.399 14.88-3.418-4.262-5.731-9.628-11.521-11.52-0.459 0.894 1.438 1.604 0 1.92-3.824-3.419-9.592-1.458-13.438-0.96 1.518-1.842 4.157-2.563 6.72-3.36 0.562-0.799-1.756-3.064-3.358-1.44 0.718 0.082 1.771-0.171 1.92 0.48-1.351 1.656-4.679 2.015-5.762 1.44 0.271-0.999 1.372-1.551 0.48-2.4-2.832-0.849-4.971-2.389-9.12-1.92v1.92c2.437-0.311 2.723 2.165 4.8 3.36-1.049 1.511-3.843 1.277-4.8 2.88 0.629 1.771 4 0.8 4.8 2.4-1.114 1.286-3.129 1.671-3.84 3.36 5.228 0.269 1.249 7.286 3.36 11.04 4.856 4.323 14.915 2.479 17.76 7.2 3.024 5.02 0.141 16.497-3.84 21.12 0.743-5.157 5.063-14.652 0-18.24-9.674 3.159-18.249-1.811-22.562-8.16-1.967 5.417-7.146 9.265-13.438 9.12-1.536-0.035-5.272 0.18-6.24-1.92 7.059 0.427 17.312 0.085 16.8-8.64-2.191-4.151-8.307-1.464-12.96-2.88 5.402-1.002 12.042-2.481 16.32-1.92 0.449-1.951 1.801-2.999 1.92-5.28-5.113-0.327-8.415-2.465-9.6-6.72 1.047-0.306 1.525 1.36 1.438-0.479 0.265-1.886-1.896-2.875-1.438-6.24-2.313-0.407-3.112-2.328-4.802-3.36-0.459 0.894 1.438 1.604 0 1.92-2.062-0.017-1.608-2.55-4.318-1.92-4.031 3.768-7.693 4.994-12.96 8.64-3.161 2.188-6.244 4.907-8.642 6.24-2.983 1.66-8.655-0.223-12 0-9.056 0.602-16.998 4.078-17.278 13.92 0.696 0.262 2.479-0.561 2.398 0.48 1.488 6.759 10.355 7.954 16.8 5.76 1.147-1.204 4.1-1.401 6.722-1.92 4.632-1.287 8.436-3.403 14.398-3.36-2.299 3.622-10.079 1.761-12 5.76 4.521 2.519 15.197-1.117 17.28 3.84-3.271 5.274 0.538 10.726 1.92 16.32-0.328 0.952-2.859-0.299-2.4 1.44 4.121-0.839 7.154-2.766 11.04-3.84-3.499-0.927-6.111 1.551-7.68 0.96 5.994-3.752 14.51-3.335 21.6-5.28 5.438-1.491 9.732-4.819 13.922-6.72 0.562-1.273-0.922-2.826 0-2.88 9.312-0.265 3.723 13.231-0.48 15.84 0.5-3.61 3.859-8.564 1.44-12-5.738 4.182-12.98 6.86-20.16 9.6-1.78-1.272-5.147-0.952-6.722 0.48 2.3 0.674 4.514-1.216 5.762 0-4.95 3.05-11.838 4.162-12.48 11.52 3.286-0.394 4.948-2.412 8.642-2.4 0.479 2.343 3.342 2.147 4.318 4.32-4.93 5.761-20.184 19.593-6.24 25.44 0.471-0.491 0.949-0.971 1.44-1.44 0.557 0.403 1.287 0.633 2.4 0.48 5.656-3.782 12.896-5.984 16.318-12 5.856-1.504 6.428-8.294 11.521-10.56-5.237 9.323-13.601 15.521-20.16 23.52 0.323 6.25 7.416 9.604 14.4 8.64 8.833-1.219 21.626-7.894 24.96-12.479 3.821 0.221 4.646-4.84 7.68-3.84-0.158 3.29-3.693 5.467-2.88 8.16 19.197-8.845 39.355-20.771 53.28-36.48-0.999-2.004 0.398-3.921 0.479-6.24-0.979-0.62-1.214-1.986-2.399-2.4 0.691 1.458-0.481 1.888-0.96 3.36-2.006-1.995-3.237-4.761-5.761-6.24-8.229 6.723-15.683 12.444-27.357 14.88-2.901 2.699-5.036 6.165-8.16 8.64 2.006-5.038 1.22-13.937 4.8-17.28 1.03 1.21 2.237 2.243 1.92 4.8 6.023 2.726 9.508-3.414 12.96-6.24 0.954 0.8 0.61-0.043 1.92 0 7.449-8.171 13.586-26.958 4.32-36-2.842 0.442-3.979-0.821-6.24-0.96-2.833 1.494-7.498 3.976-12 4.8-1.957 0.358-6.414 1.565-7.68-0.96 1.731-0.187 3.203-0.637 4.318-1.44-1.312-1.517-2.048 1.517-3.358 0 0.379-1.541 1.743-2.098 2.397-3.36-2.999 4.416-19.211 1.281-12-4.32-0.145 1.265 0.665 1.575 1.921 1.44 6.672-3.269 8.659-12.104 7.199-19.68 1.392 1.171 2.171 2.95 2.88 4.8 0.768-2.052-1.355-4.921-1.438-7.68 0.954-0.006 0.608-1.31 1.92-0.96-0.344 2.104 2.166 1.354 2.398 2.88 0.215-0.907-0.651-2.893 0.962-2.4 2.128 2.191 2.173 6.467 4.8 8.16-0.359-2.738-4.252-6.326-1.92-8.64 2.312 2.328 2.864 6.414 5.277 8.64-0.007-3.24-3.348-5.465-1.92-9.6 1.448 1.039 1.901 1.641 3.36 0.48 4.061 6.18 9.581 10.899 14.399 16.32-1.656-6.114-12.312-9.967-11.039-17.76 1.641 0.613 3.079 3.939 4.317 3.36-1.011-0.613-2.688-3.04-1.438-4.32 5.828 4.869 11.237 8.963 16.317 15.36-1.852-7.603-11.482-9.935-12.479-16.8 5.403 3.556 9.6 8.32 13.438 13.44-1.044-1.974 0.052-3.067 1.439-1.44-1.85-5.535-7.879-9.37-8.16-14.88 2.841 1.959 3.777 5.823 7.2 7.2-0.967-3.725-6.037-5.732-5.28-9.6 2.968 2.473 4.461 6.419 7.682 8.64-1.86-3.823-3.562-5.627-5.762-9.6 4.03 1.728 6.85 7.222 10.56 7.684zm12 21.12c0.463-4.65-1.103-9.989-3.36-13.92-1.816-3.16-4.962-7.456-7.68-9.12 5.35 6.002 8.12 14.591 11.04 23.04zm-5.76-12.48c-1.643-1.946-4.186-7.883-5.761-6.72 1.01 1.555 3.42 6.682 5.76 6.72zm-7.69 1.92c0.838-0.639-1.395-6.197-2.88-7.68 0.55 2.977 2.49 4.559 2.88 7.68zm0.49 8.64c-1.451-4.948-0.982-11.817-5.762-13.44 2.52 3.556 3.51 11.207 5.76 13.44zm-9.61 1.92c-3.676-5.765-8.549-12.89-14.88-14.4 5.237 3.984 11.033 9.082 12.96 14.88 0.14-1.683 2.13 0.867 1.92-0.48zm14.4 3.36c-0.367-5.667-0.726-11.429-3.84-16.32 1.95 4.772 1.84 11.609 3.84 16.32zm-15.36-10.08c-2.044-0.996-2.375-3.705-4.8-4.32 1.48 1.258 3.05 4.938 4.8 4.32zm19.2 15.36c2.896-5.312 1.144-15.39-2.88-19.2 2.29 5.079 3.22 11.506 2.88 19.2zm6.72-12.96c-0.19-2.847-1.385-4.695-2.88-6.24 0.92 2.125 1.02 5.069 2.88 6.24zm-32.64 5.76c-0.948-3.532-3.902-5.058-4.32-9.12-2.033 0.114-2.438-1.4-3.84-1.92 2.81 3.281 5.99 8.736 8.16 11.04zm-25.92-5.28c-0.21-1.782 1.604-4.55-0.48-5.28 0.31 1.616-0.61 4.458 0.48 5.28zm38.41 0c-0.61-1.326-0.886-5.49-2.398-4.32 1.25 0.684 1.49 4.878 2.4 4.32zm11.04 0.96c0.032-1.633 0.149-3.349-0.96-3.84 0.04 1.559 0.24 2.952 0.96 3.84zm-47.04 3.36c-3.683 1.277-3.562 6.358-8.158 6.72 6.793-0.117 11.17-7.126 8.64-13.44 0.34 2.745-0.52 4.288-0.48 6.72zm42.72-2.88c0.076-1.517 0.017-2.897-0.96-3.36-0.08 1.516-0.02 2.897 0.96 3.36zm-111.37 0c0.649-1.807-1.646-3.103-1.92-2.4 1.06 0.381 0.63 2.256 1.92 2.4zm22.56 1.92c-1.681-1.687-5.083-4.187-7.68-3.36 2.79 0.585 6.04 3.239 7.68 3.36zm52.32-0.96c-0.007-1.272 0.269-2.826-0.96-2.88 0.01 1.273-0.26 2.826 0.96 2.88zm5.28 0.96c0.047-1.494 0.893-3.302-0.96-3.84 0.32 1.282 0.21 2.999 0.96 3.84zm-8.16 6.72c1.635-0.577 3.568-5.531 2.4-5.76 0.3 2.707-3.19 4.15-2.4 5.76zm-65.28-0.96h2.4c-1.092-1.308-1.125-3.674-2.4-4.8-0.5 1.954 0.14 2.273 0 4.8zm114.73 0.48c1.114-2.148 0.739 3.649 1.438 1.92v-6.24c-0.63-0.49-1.769-0.471-2.397-0.96 0.4 2.748-0.23 3.629 0.96 5.28zm-112.33 2.88c-3.017-0.183-3.733-2.667-5.76-3.84 0.47 2.428 3.15 5.161 5.76 3.84zm-1.44 2.4c-1.86-1.498-4.045-2.674-5.278-4.8 0.88 2.483 2.01 4.718 5.28 4.8zm108.97 6.24c0.682-2.078 0.013-9.201-0.479-10.08 0.06 4.016-0.78 6.765 0.48 10.08zm4.31-3.36c0.577-0.867 0.124-5.793-0.479-6.24 0.31 1.932-0.62 5.104 0.48 6.24zm5.28-3.36c-0.336-1.478-0.336-0.922 0-2.4h-1.44c0.02 1.268-0.44 3.008 1.44 2.4zm-161.75 28.796c5.084 0.225 7.864 1.903 10.08 4.8 1.738 2.277 1.236 6.839 5.278 6.24-0.15-3.529-1.754-9.329-2.88-13.44-4.144-0.816-9.547-0.373-14.398-0.48-0.086 1.689 1.621 1.583 1.92 2.88zm17.759 21.6c7.307 0.342 9.346-7.217 15.358-9.6-6.906 1.41-13.23 3.41-15.355 9.6zm-24.48-8.64c-1.058 1.684-0.874 2.714 0 4.32 2.163 0.478 9.106-0.32 11.04 1.92 0.147 1.107-1.387 0.534-1.438 1.44 1.384 12.009-5.234 22.394-12 31.2 1.19 0.625 1.99-1.408 2.398 0-1.993 0.887-4.342 1.418-6.238 2.398 4.005 0.94 6.381-2.439 9.6 0.479 0.554 2.475-1 2.84-1.44 4.319 11.637-1.562 17.261-15.625 17.762-28.32 0.302-0.818 1.448-0.79 1.92-1.44-2.399-3.07 1.336-5.8 0-10.08-6.409-2.87-13.074-5.49-21.604-6.24zm-30.72 12.48h5.76c0.366-3.314 1.818-5.542 3.36-7.68-2.401-0.959-6.186-0.536-8.16-1.92 0.3 4.59-1.149 4.83-0.96 9.6zm180-8.64c-1.185 2.334-3.351 4.255-5.28 5.76-5.581 4.353-11.894 8.88-18.237 13.44-6.028 4.331-12.989 7.042-19.2 10.56-1.839 1.042-3.06 2.945-4.8 3.84-7.277 3.736-15.874 5.548-23.04 8.64-0.479 2.242-3.75 1.69-4.802 3.36-0.8 7.888 2.486 18.793-0.96 25.921 4.152-1.929 8.464-3.695 12-6.24-3.432-4.754-2.671-12.127-5.761-16.318 1.089 6.586-0.708 9.592-2.398 12.479-1.67-4.289-1.547-14.506 2.398-16.318 4.512 2.367 3.499 10.261 6.721 13.921-1.967 0.606-0.144 5.088 0.479 6.237 5.422-3.059 10.671-6.289 14.88-10.561 3.722-1.021 7.687-3.463 8.16-6.238 1.354 0.396 1.243-0.678 2.398-0.479 13.955-13.726 32.969-22.394 41.279-41.76-1.857-1.181-0.688-5.393-2.88-6.24h-0.96zm-144.96 7.68c0.75-0.485 0.75-5.907 0-4.8 0.27 2.46-1.137 2.9 0 4.8zm-2.4 0.96c0.861-0.92 1.627-4.425 0.48-5.76-0.322 1.57-2.182 5.18-0.48 5.76zm-16.319 29.28c1.873 0.688 5.137-0.02 5.278 2.398-0.229-1.672 1.203-1.679 1.922-2.398-0.846-0.277-2.82 0.58-2.882-0.48 13.104-4.788 18.011-20.202 19.2-34.08-1.131 0.011-1.414-0.827-2.88-0.479-1.696 12.543-6.165 22.315-14.4 28.32 10.558-2.884 11.591-15.292 15.36-24.96-1.7 14.42-7.552 29.35-21.598 31.68zm13.919-29.76c0.473-1.126 0.842-2.358 0.96-3.84-1.831-0.26-2.277 3.88-0.96 3.84zm-39.359 15.84c1.553-0.593 0.367 1.553 1.92 0.96-1.243-3.057 0.185-3.383 0.96-5.28-4.015-3.305 0.822-9.533-0.479-14.4-2.213 5.86-2.66 10.96-2.401 18.72zm42.239 21.12c1.851 5.365 0.664 11.123 0.479 17.279-0.221 7.397 3.121 13.77-1.92 18.239 2.643 0.56 5.442 0.957 5.28 4.32-1.082 1.957-3.891 2.188-6.72 2.397-1.181 1.541-1.564 3.877-2.88 5.279 7.523 1.756 9.562 8.996 11.04 16.801 2.245-3.453 8.368-2.486 11.52-0.479-3.468-4.316 0.064-9.682 3.36-11.521-2.005-9.234 7.452-11.297 13.438-8.16 4.519-7.936 10.415-14.526 15.84-21.6 5.312-6.922 12.345-12.936 15.842-21.602-10.749 0.67-16.928-3.232-21.602-8.641-9.729 0.344-16.11-3.604-16.8-10.56-0.509-5.151 3.144-10.323 1.44-16.32-3.033-0.807-6.977-0.706-7.682-3.84-0.804 16.73-5.581 33.31-20.633 38.4zm149.76-31.68c-1.528 2.473-3.409 4.523-3.84 7.2-1.222 0.059-1.861 0.699-1.92 1.92 5.007-2.994 7.184-8.816 10.08-13.92-2.19 0.28-3.21 3.01-4.32 4.8zm5.77 2.88c-2.398-0.16-2.032 2.446-4.318 2.4-0.798 3.803-8.483 5.431-6.722 8.64 0.272-2.593 1.222 0.191 1.921 0 5.879-1.602 7.259-12.608 15.358-12.96-1.396-1.481-2.203-3.557-4.319-4.32-0.32 2.41-1.83 3.62-1.92 6.24zm-159.84 2.4c0.969-2.239 3.344-5.605 2.4-8.16-0.569 3.07-3.582 6.17-2.4 8.16zm142.56 43.2c2.183-2.619 5.641-4.941 7.68-7.682 4.714-6.334 11.101-15.06 18.72-20.158 1.84-1.233 4.308-1.191 4.801-4.321-2.659 0.859-3.368 3.67-6.238 4.321-0.907-2.143-4.211-4.419-3.84-6.241 1.865 0.572 4.168 4.36 5.76 0.96-0.565-0.075-1.362 0.083-1.44-0.48 1.936 0.493 2.133-0.748 2.881-1.44-0.108-1.742-2.354-3.056-1.438-4.32 1.975-0.054 1.597 2.243 3.358 2.4-1.452-3.986-4.686-6.195-7.198-9.12-0.891 2.951-5.657 2.023-5.762 5.76 0.275 1.964 2.566 1.913 2.399 4.32-0.613 0.026-0.665 0.616-1.439 0.48-1.175-0.425-0.521-2.68-2.398-2.4-8.902 6.83-18.955 14.75-28.32 20.639-2.394 1.507-6.051 1.979-7.199 4.802 7.354-3.688 14.15-10.488 21.602-12.479-4.594 1.965-7.31 5.812-12.48 7.198 0.241 2.814 2.534-1.916 3.36 0-0.746 2.652-4.336 0.832-5.28 2.398 1.201-0.059 1.503-0.916 1.92 0.48-5.071 2.768-9.288 6.393-14.88 8.641-0.505 2.254 1.619-0.789 1.92 0.959-0.961 0.801-1.776 1.742-3.357 1.92-0.107 0.908 0.541 1.061 0.479 1.922-13.658 7.939-25.772 17.426-38.397 26.398 3.869 1.568 4.415 6.465 7.68 8.641 10.958-10.002 21.979-19.938 33.6-29.279-6.883 7.355-14.226 14.254-22.56 20.16-1.984 4.922-9.811 6.476-10.08 11.521 6.604-1.875 7.612-9.349 14.4-11.039-0.635 0.967-1.576 1.623-2.883 1.92-1.646 4.938-8.639 7-9.117 11.521 9.809-6.969 18.763-17.771 27.84-27.359 3.148-3.33 6.539-6.031 9.12-9.602-7.693 6.067-13.367 14.153-21.603 19.682-0.971 1.59-1.526 3.592-4.318 3.359 10.244-9.273 19.387-19.652 30.238-28.318-1.123 1.756-2.584 3.174-3.84 4.799 6.795-4.727 10.99-12.049 18.72-15.84-0.357 0.951-2.938 2.139-1.92 2.881 1.381-2.301 3.98-3.381 5.28-5.762 0.613 0.025 0.665 0.615 1.44 0.479 1.629-2.37 4.045-3.954 6.237-5.76 3.621-0.067 6.004-5.924 9.12-3.36-4.883 4.077-8.271 9.647-13.92 12.961-1.646 6.676-9.681 11.116-12.96 17.76 2.76 0.48 2.95-2.67 4.32-4.32zm-4.8 4.32c-6.981 10.99-17.345 20.727-22.078 31.199-4.216 3.786-6.237 9.764-11.04 12.961-1.128 4.313-6.764 6.674-6.723 10.561 6.565-5.293 12.359-13.811 16.803-21.602 0.535-0.941 2.552-3.509 3.84-2.879 0.105-0.908-0.541-1.06-0.48-1.921 6.353-7.967 13.145-16.129 17.761-24.479 1.407-0.354 2.063-1.457 2.882-2.4 0.02-0.82-0.37-1.23-0.96-1.44zm-166.56-38.88c-0.614-0.698-2.327-2.75-2.88-1.92 0.819 0.5 1.779 3.3 2.88 1.92zm203.52 1.44c-0.629-0.685-0.571-4.506-1.922-2.88 0.84 0.48 1.14 3.94 1.92 2.88zm-209.76-0.48c0.907-0.213 2.895 0.653 2.4-0.96-2.455 1.297-2.333-2.415-3.36-0.96 0.888 0.08 0.295 1.63 0.96 1.92zm21.121-0.48c0.292 0.027 0.568 0.071 0.48 0.48 0.025 0.292 0.07 0.568 0.479 0.48 0.235-1.077 3.22-1.856 2.4-2.4-0.755 0.85-2.57 0.63-3.359 1.44zm2.4 1.92c0.746-0.694 2.24-0.64 2.88-1.44-1.479-0.336-0.922-0.336-2.4 0 0.855 1.3-2.115 0.93-0.48 1.44zm-0.96 1.92c1.786-0.614 4.048-0.752 5.76-1.44-0.082-0.718 0.171-1.771-0.48-1.92-0.415 2.47-4.223 1.54-5.28 3.36zm-4.321-1.92c-4.471 1.221-6.555-1.13-9.6-0.48 2.27 1.58 7.153 2.78 9.6 0.48zm-14.88 6.24c-1.083-0.357-0.188-2.694-0.48-3.841h-5.278c-0.444 0.836 0.016 2.578-1.44 2.399-0.791-4.789 5.247-2.751 7.2-4.799-7.854 0.583-19.597-1.204-20.16 6.72-0.734 10.342 19.566 3.021 25.44 1.92 0.967-3.3 0.979-6.064-0.48-8.64h-2.399c-0.216 0.938-3.353 3.995-0.961 6.241-1.604 1.164-7.3 3.541-8.64 0.479 2.809 0.44 5.768 1 7.198-0.48zm12.48-3.84c1.965-0.117 4.627 0.467 5.28-0.96-1.367 0.42-5.807 0.25-5.28 0.96zm-1.92 0c-1.665 0.385-1.845-0.715-3.358-0.48-0.592 1.6 3.243 1.18 3.358 0.48zm2.88 1.44c4.148 1.269 7.395 0.296 10.562-1.44-2.23-0.14-7.445 0.87-10.562 1.44zm8.16 0.96c2.357 1 6.492-1.002 6.24-2.399-1.425 1.46-4.005 1.76-6.24 2.4zm-11.52 0.48c-0.481-0.002-0.571 0.389-0.96 0.479-0.908 0.106-1.061-0.541-1.92-0.479-0.695 1.201-1.163 1.885-0.48 3.359-0.586 0.055-1.137 0.145-0.96 0.959 5.196-1.283 9.669 0.83 13.92-0.479-1.889-0.176-2.096-0.832-0.96-1.92-3.467 0.121-3.383 1.326-5.76-0.479-0.879 0.562-2.179 0.699-2.4 1.92-0.003-1.276-1.335-1.227-1.92-1.92 2.065-0.215 4.842-2.646 4.32-0.479 3.03-0.347-0.115-3.042-1.92-2.88 0.06 1.201 0.916 1.503-0.48 1.921 0.27-1.427-2.618-2.133-3.358-0.961 1.228 0.05 2.287 0.28 2.878 0.96zm9.121 0.96c1.271-0.01 2.826 0.266 2.88-0.961-1.273 0.01-2.827-0.26-2.88 0.96zm4.799 15.84c-0.202-2.824-2.504-1.414-3.36 0 0.632 1.928 2.016 3.105 2.4 5.279-6.977 7.522-5.904 19.451 5.76 21.6 6.663-1.975 7.969-7.904 5.76-15.359-1.113-1.272-1.285 1.273-2.398 0 1.7-3.795 5.729-11.881 0.96-13.92 0.056-1.225 0.09-2.471 1.438-2.397-0.904-1.486-0.709-2.646-0.96-3.843-2.852 0.511-1.853 4.867-2.88 7.201-2.714-6.11 2.87-7.916 4.32-12.479-3.393-0.513-3.438 2.324-6.72 1.92-3.416 5.42-4.8 15.354-1.922 20.642-1.515-2.16-1.363 1.215-2.88 0 0.877-3.028-0.806-6.814 0-9.121 0.03 0.3 0.074 0.57 0.482 0.48zm-37.44-7.68c-2.762 1.711-3.795 6.084-3.358 9.602 3.917 4.008 7.719 1.387 12 0.479 5.464-1.155 10.988-0.963 14.88-1.92 4.85-1.19 9.905-1.352 12.96-3.84 0.903-3.1 1.792-7.195-1.44-8.641-12.171 0.98-23.12 2.26-35.042 4.32zm161.28 8.64c2.106-0.453 3.324-1.795 4.8-2.879-2.14 0.42-3.51 1.61-4.8 2.88zm-138.24 0.96c0.565 0.074 1.362-0.084 1.44 0.479-10.79 1.293-26.004 0.442-25.44 11.521 4.145-0.976 7.235-0.082 6.722 5.761 2.573-0.619 2.404-1.871 0.96-3.361 6.519-0.916 15.364-4.369 20.64-3.357 3.934-2.572 9.604-5.656 6.24-11.521-3.491-0.88-7.229 0.14-10.562 0.48zm136.32 2.4c1.833-1.047 3.879-1.881 5.28-3.359-2.44 0.44-3.94 1.82-5.28 3.36zm15.84 6.24c2.799-3.439 6.645-5.838 9.12-9.601-3.24 2.69-8.07 6.32-9.12 9.6zm-23.51-4.32c-3.069 1.889-6.652 3.268-9.603 5.277 0.586 0.057 1.139 0.145 0.96 0.961-6.905 3.494-14.46 8.897-20.64 11.521 5.04-5.201 12.573-7.908 18.72-12-3.683 1.437-7.42 2.819-10.08 5.278-1.468-0.348-1.411 0.828-2.88 0.479-2.617 3.496-11.371 3.306-10.56 8.642 1.972-0.107 2.042-2.117 4.318-1.92-0.589 1.973-3.217 1.903-3.841 3.84 12.57-9.029 28.27-14.932 40.801-24-1.478-0.357-0.923 1.318-2.398 0.961 0.685-2.807-1.624 0.385-1.44-1.922-1.367 0.231-1.377 1.822-1.92 2.883 1.229 0.369 2.207-1.881 2.881-0.48-2.096 1.432-5.903 3.687-7.681 3.84 0.72-1.21 4.63-1.74 3.36-3.36zm-3.84 6.72c1.226 0.371 2.205-1.879 2.88-0.479-7.619 6.303-17.271 10.569-24.96 16.801-2.258 0.771-5.413 2.158-4.32 4.801 10.276-7.482 22.958-15.121 31.68-22.561-0.053 0.381-1.587 1.455-1.438 0.479 0.905-2.524 7.437-4.308 6.72-5.281-3.8 1.81-7.19 4.01-10.56 6.24zm6.23-1.44c1.675-0.728 3.442-1.357 4.32-2.881-2 0.4-3.1 1.7-4.32 2.88zm12.48 7.2c2.873-1.93 6.652-5.5 7.2-8.159-2.11 3.01-5.47 4.77-7.2 8.16zm-142.08-0.48c0.102-0.539 0.533-0.748 0.96-0.961-0.176 1.902-0.397 3.764-2.4 3.84-0.072-1.193 0.754-1.486 0.96-2.4-6.051 4.9-17.81-0.049-21.6 5.762 2.032 2.447 4.46 4.5 9.12 4.318 4.906 2.65 16.33 5.098 25.438 5.762 5.616 0.408 12.781 0.74 13.92-2.399-0.518-1.402-2.283-1.556-4.318-1.438-7.49-3.552-16.643-5.439-16.8-16.32 0.105-0.814-0.541-1.188-0.48 0-1.422 3.498 0.854 7.393 0.48 9.602-2.22-1.23-2.32-6.842-1.44-9.602-2.608-0.121-1.374 2.168-3.36 0.479-0.358 0.65-1.067 3.35-0.48 3.36zm117.12-1.44c1.666-0.414 2.663-1.496 3.84-2.399-1.48 0.61-3.44 0.73-3.84 2.4zm-121.92-0.96c1.007 0.134-0.696 1.281 0.479 1.92-0.698 0.263-2.479-0.561-2.398 0.48 1.882 1.366 5.559-1.654 4.8-2.882-0.851 2.15-2.032-0.83-2.881 0.48zm149.28 6.24c2.087-0.953 2.789-3.291 5.279-3.84-1.693-0.828 1.386-0.787 0.48-2.4-2.91 1.1-4.12 3.89-5.76 6.24zm-156.96-3.36c0.908-0.106 1.061 0.541 1.92 0.48-0.021-0.66 0.228-1.056 0.48-1.439-1.19-0.07-2.329-0.09-2.4 0.96zm144.48 10.56c-1.743 1.85-5.23 2.953-4.8 5.76 1.471-1.438 2.561-3.498 5.278-2.398 0.357-1.479-1.316-0.924-0.96-2.399 2.435-0.775 3.688-5.263 6.239-4.32-1.479 0.922-2.512 2.289-3.359 3.84 3.188-0.971 4.061-4.26 6.239-6.239-0.697-0.263-2.479 0.562-2.397-0.479 0.817-0.805 3.528-2.197 2.397-3.359-2.93 2.73-5.73 6.53-8.64 9.6zm-42.71 82.08c9.135 11.983 18.195-4.947 21.6-12.959 3.633-8.553 7.568-18.631 5.76-29.279-0.639-3.764-3.584-8.783-4.8-12.479-0.935-2.844-0.717-5.102-2.399-6.721-4.041-3.889-9.06-6.258-9.118-12-7.16-1.961-7.122-11.119-12-15.359-3.79 1.33-3.711 6.527-4.32 11.039 5.493 10.986 20.312 12.646 25.92 23.521-3.933-3.6-9.165-7.273-14.399-10.08-3.064-1.645-5.104-5.398-8.159-7.201-1.784-1.053-5.381-1.889-8.16-2.879-6.065-2.162-10.332-5.678-15.84-0.961-0.333 4.127 0.618 5.043 1.438 7.201-5.559-0.969-7.723-7.309-13.92-5.762-8.872 2.216 0.758 13.584 0.96 15.841-1.57-1.95-4.366-2.675-5.28-5.28-1.551 0.85-3.56 1.24-4.318 2.881 0.588 8.018 5.667 16.24 12 15.359 0.584 2.156 5.14 3.738 2.398 6.238-5.77-2.549-10.082-6.56-14.88-10.08 0.121-3.322-2.604-6.226-7.2-6.238-1.88 3.031-0.457 6.752 0.96 9.119 1.954 0.18 3.642-3.328 4.802-0.961-10.265 8.918 6.246 14.33 12.479 17.762 4.313 2.373 8.547 6.5 12.48 8.641-0.9 0.914-0.055 1.205 0 2.4 5.774 5.902 12.004 11.354 23.04 12 0.94 1.94 0.56 3.21 0.96 6.24zm39.35-71.52c5.272-4.661 13.082-11.86 14.881-16.801-5 5.56-10.45 10.67-14.88 16.8zm-49.91-4.32c1.882-0.357 2.607-1.873 4.32-2.398-0.824-1.229 0.55-1.682-0.48-2.4-0.74 1.96-4.72 2.79-3.84 4.8zm34.07 14.88c4.965-4.476 8.601-10.279 14.4-13.92 0.188 0.826-0.713 1.229 0 1.438 1.363-1.194 3.184-1.937 3.357-4.319-2.055 0.75-2.24 3.407-5.277 1.92-4.345 5.418-9.779 9.741-14.4 14.881 0.624 1.271 2.511 0.537 1.44 2.399 2.812 0.093 2.549-2.891 5.277-2.881 0.021 1.461-1.013 1.867-1.438 2.881 4.757-3.403 8.811-7.51 12-12.479-3.18 1.463-4.022 5.258-8.16 5.762 0.299-2.264 2.911-2.209 3.358-4.32-4.74 2.4-5.97 7.95-10.56 8.64zm-113.76-14.88c-0.837 0.979 0.355 0.94-0.48 1.92 1.776 0.336 1.197-1.685 1.92-2.398-1.478 0.355-0.922-1.316-2.398-0.961-0.145 0.95 0.646 0.95 0.958 1.44zm82.085 0.48c0.63 0.615 1.77 0.615 2.398 0 0.136-1.096-0.114-1.807-0.96-1.92-0.15 0.98-1.3 0.95-1.44 1.92zm-73.444 11.04c1.303 0.344-0.344-2.264 0.96-1.92 4.361 0.152 8.749-3.695 10.08-8.16-3.128-0.82-5.749-1.023-10.08-1.439-1.082 1-2.009 2.15-2.398 3.84 2.592 1.12-0.158 7.58 1.438 7.68zm-11.52 23.04c-9.453 6.951-22.317 11.543-28.8 20.639-0.316 3.084 0.493 5.664-1.44 6.24 2.854 2.291 6.126-1.789 8.16-3.359-0.517-1.404-1.362-2.479-0.96-4.801 0.913-1.006 1.308-2.531 3.358-2.398 1.59 0.492 2.831 1.33 2.882 3.359 6.39-4.336 13.267-7.996 19.198-12.961 3.365-2.814 7.312-6.01 9.602-8.639 5.883-6.756 13.972-17.326 11.04-26.881-7.538 10.02-13.538 21.81-23.04 28.8zm27.359-20.64c1.97 0.562 1.93-3.336 0.48-3.357 0.235 1.52-0.864 1.7-0.48 3.36zm-18.72 0.96c-0.134-1.094 0.116-1.806 0.96-1.92 0.082 0.719-0.172 1.771 0.48 1.92-0.108-0.906 0.541-1.06 0.479-1.92-0.71-0.25-1.21-0.711-1.92-0.961-0.374 0.34-1.067 2.68 0.001 2.88zm-0.96 1.44c0.432 1.404 0.432 1.476 0 2.879 0.295 0.142 1.848 1.195 1.92 0-2.103-0.7 0.37-2.467 1.44-2.879-0.565-0.075-1.363 0.082-1.44-0.479-0.027-0.293-0.072-0.566-0.479-0.479 0.061 0.86-0.477 1.13-1.441 0.96zm13.441 6.24c2.563-1.436 4.267-3.732 5.76-6.24-3.666 0.34-3.587 4.42-5.76 6.24zm96.474-3.36v1.441c1.566 0.125 1.387-1.494 2.4-1.92-1.35-0.39-1.24 0.68-2.4 0.48zm-135.84 41.28c5.132-1.936 9.521-7.084 14.4-7.682-0.264-2.849 4.28-6.572 7.198-6.238 0.724-4.516 5.854-7.385 9.12-11.041 1.885-2.107 2.678-4.691 4.8-6.24 0.979-0.838 0.941 0.357 1.92-0.479-1.13-1.368 1.571-3.25 0.48-4.319-9.314 15.33-25.805 23.48-37.918 36zm7.68-28.8c-0.841-0.133-2.395 1.352-2.88 0-0.313-1.781 2.105-3.299 0.48-4.801-4.396 8.764-16.807 16.92-18.24 27.358-0.212 1.541 0.361 6.459 0.479 1.441 1.52-1.363 1.674-4.089 3.842-4.802 2.481-5.676 6.023-10.295 10.078-14.399h1.44c0.459-0.896-1.438-1.604 0-1.92 1.4-0.806 3.604 0.998 4.8 1.92 1.203 0.084 1.165-1.074 1.92-1.438-1.191-1.28-2.301-2.91-1.919-3.36zm66.24 53.28c3.621-0.271 6.332-5.47 9.6-7.681-3.87 1.89-6.13 5.39-9.595 7.68zm2.401 0.48c0.615 1.342 0.99-1.513 2.398-0.959 0.071 0.64-1.952 1.446-0.479 1.92 7.036-1.226 11.869-8.539 16.8-13.44-2.156 0.403-2.857 2.264-4.8 2.881-0.055-1.104-3.287-0.396-3.84 0.479 3.14 0.562-2.361 2.089-0.48 2.88 0.711-1.07 2.726-3.326 3.84-2.4-3.399 2.203-6.275 7.479-9.6 8.16 0.021-2.072 4.261-2.438 2.88-4.318-0.964 1.115-1.985 2.176-3.36 2.881-0.07-0.641 1.952-1.449 0.48-1.92-1.05 1.5-2.894 2.22-3.834 3.84zm7.194-8.64c2.203-0.875 2.688-2.48 4.802-2.398-2.21-1.416 3.087-3.191 3.84-4.801-1.483-1.58-4.297-0.305-2.4-2.879-1.755-0.6-2.572 2.176-3.358 0.959 0.379-1.062 1.679-1.201 2.398-1.92-0.896-1.982-1.531-4.229-3.84-4.801 0.64-3.15-0.316-3.965-1.44-6.24-2.396-0.357-2.349-0.178-4.318 0.479-0.292 1.146 0.603 3.482-0.48 3.841-2.837-1.033 0.869-4.263-1.438-6.722 0.565 0.07 1.088 0.854 1.438 0-1.127-0.151-1.075-1.483-1.92-1.92-1.16 0.763-1.271 2.567-1.92 3.84-0.09-1.35-1.565-1.312-1.92-2.399 0.988-0.609 2.435-0.765 2.4-2.398-1.473-0.77-1.934-2.549-3.842-2.879-0.354 1.666 2.537 2.539 0.96 3.84-1.098-0.982-2.277-1.881-3.84-2.4 1.87-0.16 0.128-2.793-0.96-3.84-0.306 1.744-2.244-1.113-2.398 0.48 3.008 2.988-1.852 4.752-2.88 6.719 2.774-0.264 2.769-3.312 5.76-3.359-0.213 2.314 4.697 4.918 0.96 6.24-0.31-1.934-0.839-3.641-3.36-3.359-1.354 1.035 2.784 2.8 0 3.841-1.232-0.048-0.687-1.873-1.92-1.921-0.435 0.847-1.767 0.794-1.92 1.921 0.604 1.954 2.629 2.491 3.84 3.84-0.407 0.453-1.182 0.317-2.88 0.479-0.845-1.715-2.452-2.668-2.88-4.801 0.225-0.779 2.919-1.5 1.44-2.4-0.441 0.841-1.5 1.062-2.882 0.961-0.863-2.336-2.544-3.854-2.88-6.721 3.621 0.422 3.485-2.914 6.722-2.879-1.099-2.744-3.033-4.646-6.24-5.281-2.147 1.439-3.894 5.074-7.2 3.843 1.819 1.76-0.125 3.09-1.92 3.84-0.043 4.883 1.839 10.56 1.92 14.879 7.073 8.929 12.16 19.84 24 24 5.607-3.674 10.477-10.642 15.84-12.959-1.96 1.56-3.72 3.32-5.28 5.28zm-22.075-32.16c0.031 1.889 1.518 2.322 2.882 2.879 1.117-1.27-1.141-4.46-2.882-2.88zm-3.36 2.4c-0.851 1.621 0.646 2.137 0.96 3.84 1.66 0.383 2.026-0.531 2.88-0.959-0.09-1.83-0.682-3.158-2.4-3.359-0.08 0.56-0.758 0.52-1.44 0.48zm-58.56 7.2v-1.92h-1.438c-0.135 1.26-0.164 2.41 1.438 1.92zm46.08 10.56c0.609 2.111 1.143 4.301 3.36 4.801 2.164-2.396 1.629-3.91 0.479-7.199-2.251-0.17-1.455 2.71-3.839 2.4zm44.645 7.68c0.905 0.105 1.059-0.541 1.92-0.48 0.105 0.373 0.013 0.947 0.479 0.961 0.043-0.756 1.226-0.375 0.96-1.438-0.563-0.076-1.36 0.082-1.438-0.479 0.267 0.002 0.545-0.39 0-0.479-0.05 1.24-1.88 0.69-1.92 1.92zm-22.565 14.88c-1.959 0.146-0.256-1.002-0.479-1.92-1.324 0.437-3.371 0.147-4.32 0.961 1.954-0.33 3.554 2.18 4.799 0.96zm4.8 1.92c2.694 0.24 8.01 0.386 9.12-2.399-3.839 0-5.394 0.69-9.115 2.4z"/>
	<path d="m207.66 32.824c2.197 3.973 3.899 5.777 5.761 9.6-3.22-2.221-4.713-6.167-7.681-8.64-0.757 3.868 4.313 5.875 5.28 9.6-3.423-1.377-4.359-5.241-7.2-7.2 0.281 5.511 6.312 9.346 8.16 14.88-1.39-1.627-2.483-0.534-1.439 1.44-3.841-5.12-8.036-9.884-13.438-13.44 0.995 6.865 10.628 9.197 12.479 16.8-5.08-6.397-10.489-10.491-16.317-15.36-1.248 1.28 0.429 3.707 1.438 4.32-1.238 0.58-2.679-2.747-4.317-3.36-1.271 7.792 9.383 11.646 11.039 17.76-4.818-5.42-10.341-10.14-14.399-16.32-1.459 1.161-1.912 0.559-3.36-0.48-1.428 4.135 1.913 6.36 1.92 9.6-2.413-2.227-2.968-6.312-5.277-8.64-2.332 2.314 1.561 5.902 1.92 8.64-2.627-1.693-2.672-5.969-4.801-8.16-1.612-0.493-0.746 1.493-0.96 2.4-0.233-1.526-2.743-0.776-2.399-2.88-1.312-0.35-0.966 0.954-1.92 0.96 0.082 2.759 2.205 5.628 1.438 7.68-0.709-1.851-1.488-3.629-2.88-4.8 1.46 7.577-0.528 16.412-7.199 19.68-1.256 0.135-2.063-0.175-1.921-1.44-7.211 5.601 9.001 8.736 12 4.32-0.654 1.263-2.021 1.819-2.397 3.36 1.312 1.517 2.047-1.517 3.358 0-1.115 0.803-2.587 1.253-4.318 1.44 1.266 2.525 5.723 1.318 7.68 0.96 4.502-0.824 9.167-3.306 12-4.8 2.262 0.139 3.398 1.402 6.24 0.96 9.266 9.042 3.129 27.829-4.32 36-1.31-0.043-0.966 0.8-1.92 0-3.452 2.827-6.938 8.966-12.96 6.24 0.317-2.557-0.89-3.59-1.92-4.8-3.58 3.343-2.794 12.242-4.8 17.28 3.124-2.476 5.259-5.941 8.159-8.64 11.678-2.436 19.13-8.157 27.358-14.88 2.521 1.479 3.755 4.245 5.761 6.24 0.479-1.472 1.651-1.903 0.96-3.36 1.188 0.414 1.421 1.78 2.399 2.4-0.079 2.319-1.479 4.236-0.479 6.24-13.924 15.709-34.083 27.635-53.279 36.48-0.813-2.693 2.722-4.871 2.88-8.16-3.031-1-3.856 4.062-7.68 3.84-3.334 4.586-16.129 11.261-24.96 12.479-6.984 0.965-14.077-2.392-14.4-8.64 6.562-7.999 14.923-14.197 20.16-23.52-5.094 2.266-5.664 9.056-11.521 10.56-3.424 6.016-10.662 8.218-16.318 12-1.113 0.153-1.845-0.077-2.4-0.48-0.491 0.469-0.971 0.949-1.439 1.44-13.943-5.847 1.311-19.679 6.239-25.44-0.978-2.172-3.84-1.977-4.318-4.32-3.691-0.012-5.354 2.006-8.642 2.4 0.644-7.358 7.53-8.47 12.48-11.52-1.248-1.216-3.462 0.674-5.761 0 1.572-1.432 4.939-1.752 6.721-0.48 7.18-2.74 14.422-5.418 20.16-9.6 2.419 3.436-0.941 8.39-1.44 12 4.203-2.609 9.793-16.104 0.479-15.84-0.92 0.054 0.563 1.607 0 2.88-4.188 1.901-8.483 5.229-13.92 6.72-7.091 1.945-15.605 1.528-21.601 5.28 1.567 0.591 4.183-1.887 7.68-0.96-3.886 1.074-6.919 3-11.039 3.84-0.46-1.739 2.071-0.488 2.399-1.44-1.382-5.594-5.19-11.045-1.92-16.32-2.083-4.957-12.759-1.321-17.28-3.84 1.921-3.999 9.701-2.138 12-5.76-5.964-0.043-9.768 2.073-14.398 3.36-2.999 0.896-5.573 0.716-6.722 1.92-6.442 2.194-15.312 1-16.8-5.76 0.081-1.041-1.703-0.218-2.398-0.48 0.28-9.842 8.224-13.318 17.278-13.92 3.344-0.223 9.017 1.66 12 0 2.396-1.333 5.479-4.052 8.642-6.24 5.267-3.646 8.929-4.872 12.96-8.64 2.71-0.63 2.257 1.903 4.318 1.92 1.438-0.315-0.459-1.026 0-1.92 1.688 1.032 2.487 2.954 4.802 3.36-0.458 3.364 1.704 4.354 1.438 6.24 0.087 1.84-0.393 0.174-1.438 0.48 1.185 4.255 4.485 6.394 9.6 6.72-0.119 2.281-1.471 3.329-1.92 5.28-4.277-0.562-10.918 0.918-16.32 1.92 4.653 1.417 10.769-1.271 12.96 2.88 0.513 8.725-9.74 9.067-16.8 8.64 0.968 2.1 4.705 1.885 6.24 1.92 6.294 0.146 11.473-3.703 13.438-9.12 4.312 6.349 12.888 11.319 22.562 8.16 5.063 3.588 0.743 13.083 0 18.24 3.979-4.624 6.863-16.1 3.84-21.12-2.845-4.721-12.902-2.876-17.76-7.2-2.112-3.754 1.864-10.771-3.36-11.04 0.711-1.689 2.727-2.075 3.84-3.36-0.8-1.6-4.171-0.629-4.8-2.4 0.958-1.603 3.751-1.369 4.8-2.88-2.077-1.195-2.364-3.671-4.8-3.36v-1.92c4.149-0.469 6.289 1.072 9.12 1.92 0.892 0.849-0.208 1.401-0.48 2.4 1.083 0.575 4.411 0.216 5.762-1.44-0.148-0.651-1.202-0.398-1.921-0.48 1.604-1.624 3.921 0.641 3.359 1.44-2.562 0.797-5.202 1.518-6.72 3.36 3.849-0.499 9.614-2.459 13.439 0.96 1.438-0.316-0.459-1.026 0-1.92 5.787 1.892 8.103 7.258 11.521 11.52 0.881-6.854-8.729-11.393-14.399-14.88h5.279c0.068-1.988-3.34-0.5-4.8-0.96 2.256-2.225 8.373-0.587 10.08-3.36-5.184 1.289-11.28-1.215-16.8 0.48-5.557-2.116-13.834-4.447-20.16-2.88-2.701-0.979-3.829-3.532-4.801-6.24 6.061 2.405 10.354-3.308 13.439-3.84 2.646-5.194 14.115-13.366 21.602-6.72-0.307-4.958-6.417-5.161-8.642-4.8-3.351 0.543-7.459 3.503-11.52 5.76-5.078 2.822-8.266 5.611-13.44 6.24-1.361-1.039-0.796-4.003-2.88-4.32-1.536 0.063-2.112 1.088-1.92 2.88-2.634-0.382-2.727-3.733-1.92-6.24 2.377-0.503 2.239-3.521 4.8-3.84 6.54-12.18 17.645-19.796 30.72-25.44 3.171-2.91 8.376-3.784 12.48-5.76 32.852-3.164 55.446 9.443 67.68 29.76-1.77-1.11-2.354-3.403-4.318-4.32-0.974 2.424 2.751 4.279 3.841 6.24 1.478 0.358 0.922-1.317 2.397-0.96 0.406 1.708-1.39 2.876 0.48 3.36-3.833 1.675-6.022-4.256-8.642-6.72-0.191 3.718 3.892 7.306 6.722 9.6-3.7-0.458-6.52-5.952-10.56-7.676zm-7.19 3.36c1.293 4.31 3.937 9.821 7.682 10.08-2.99-2.94-4.27-7.579-7.68-10.08zm-117.12 56.16c6.496-0.229 12.662 0.256 16.318 0.48-0.951-7.16-14.156-2.467-16.318-0.48zm73.925-19.2c-0.255-2.545-4.521-5.022-7.683-6.24 0.41 1.53-0.418 1.822-0.96 2.4 4.13-1.429 5.35 2.956 8.64 3.84zm4.79-8.64c-3.455-2.465-10.479-1.361-15.84-1.92 2.56 3.023 11.09 1.797 15.84 1.92zm-12.96 12c-0.478-2.574-2.715-5.913-4.8-5.28 1.66 1.701 2.68 4.046 4.8 5.28zm12-0.48c-0.274-1.326-0.509-2.692-2.4-2.4-0.1 1.709 0.7 2.509 2.4 2.4zm33.6 0c-0.595-0.488-3.84-1.911-4.317-1.92-4.492-0.085-7.637 7.289-10.562 10.08 0.136-1.255-0.175-2.064-1.438-1.92-1.928 3.893 1.612 7.324 1.438 10.56-0.162 3.008-2.768 3.881-2.88 7.2 4.424 3.614 8.97-0.825 11.521-3.36 1.812-7.147-0.845-11.688-5.761-13.44 2.146 0.943 3.995-1.05 5.761-1.92 0.8-0.962-0.041-3.56 0.96-4.32 3.236-0.356 2.57 3.19 2.882 5.76 3.856 4.907 4.625 10.571 1.92 16.8 4.98-4.993 5.66-19.273 0.48-23.516zm-41.27 8.16c1.309 1.801 5.365 1.852 5.279-1.44-1.65-3.019-5.97-1.462-5.28 1.44zm-64.325 4.32c3.835-0.681 9.408 0.165 11.52-0.96-3.211-1.381-9.037-1.077-11.515 0.96zm95.515 17.756c4.409-1.671 7.478-4.685 8.643-9.6h-1.44c-1.33 5.96-5.77 5.5-7.2 9.6z" fill="#fff"/>
	<path d="m219.19 38.584c2.718 1.664 5.861 5.959 7.68 9.12 2.26 3.932 3.823 9.27 3.36 13.92-2.92-8.449-5.69-17.038-11.04-23.04z" fill="#fff"/>
	<path d="m218.7 42.424c1.575-1.163 4.118 4.774 5.761 6.72-2.33-0.038-4.74-5.165-5.76-6.72z" fill="#fff"/>
	<path d="m213.9 43.384c1.485 1.483 3.718 7.042 2.88 7.68-0.39-3.121-2.33-4.703-2.88-7.68z" fill="#fff"/>
	<path d="m211.51 46.264c4.777 1.623 4.311 8.492 5.762 13.44-2.25-2.233-3.24-9.884-5.76-13.44z" fill="#fff"/>
	<path d="m205.74 62.104c-1.927-5.798-7.723-10.896-12.96-14.88 6.331 1.511 11.204 8.635 14.88 14.4 0.21 1.347-1.78-1.203-1.92 0.48z" fill="#fff"/>
	<path d="m218.23 48.664c3.114 4.891 3.473 10.653 3.84 16.32-2.01-4.711-1.9-11.548-3.84-16.32z" fill="#fff"/>
	<path d="m201.9 50.584c2.425 0.615 2.756 3.324 4.8 4.32-1.75 0.618-3.32-3.062-4.8-4.32z" fill="#fff"/>
	<path d="m191.82 52.024c1.4 0.52 1.807 2.034 3.84 1.92 0.418 4.062 3.372 5.588 4.32 9.12-2.17-2.304-5.35-7.759-8.16-11.04z" fill="#fff"/>
	<path d="m210.06 53.464c1.515-1.17 1.788 2.994 2.398 4.32-0.9 0.558-1.14-3.636-2.4-4.32z" fill="#fff"/>
	<path d="m105.9 56.824c0.274-0.703 2.569 0.593 1.92 2.4-1.29-0.144-0.86-2.019-1.92-2.4z" fill="#fff"/>
	<path d="m122.71 57.784c2.596-0.826 5.999 1.673 7.682 3.36-1.65-0.121-4.9-2.775-7.68-3.36z" fill="#fff"/>
	<path d="m182.23 62.104c1.168 0.229-0.768 5.183-2.4 5.76-0.8-1.61 2.69-3.053 2.4-5.76z" fill="#fff"/>
	<path d="m110.23 67.864c1.232 2.126 3.417 3.303 5.278 4.8-3.28-0.082-4.41-2.317-5.28-4.8z" fill="#fff"/>
	<path d="m186.06 93.304c0.203 3.427-3.191 7.851-7.2 6.24 1.16-3.331 5.24-3.727 7.2-6.24z" fill="#fff"/>
	<path d="m79.025 122.58c-0.229 3.474-0.254 5.106-1.44 8.16 0.209 0.712 0.614-0.189 1.44 0 1.233-3.741 2.308-6.392 1.438-9.12-0.483-0.795-2.039-0.521-2.88-0.96 1.888-1.384 4.521 0.582 6.722 0.479 0.491 1.613-1.493 0.748-2.4 0.96 0.035 3.795-1.614 7.095-0.96 10.08-1.36 0.501-2 0.501-3.36 0-2.681 7.879-5.054 16.066-12 19.682 6.188-5.815 9.121-14.88 12-24 0.356-1.88-1.012-5.49 1.44-5.28z"/>
	<path d="m72.786 124.02c-3.771 9.668-4.804 22.076-15.36 24.96 8.235-6.005 12.704-15.776 14.4-28.32 1.467-0.347 1.75 0.491 2.88 0.479-1.189 13.878-6.098 29.292-19.2 34.08 0.062 1.062 2.036 0.204 2.882 0.479-0.719 0.723-2.151 0.729-1.922 2.399-0.143-2.418-3.405-1.713-5.278-2.399 14.044-2.33 19.896-17.26 21.598-31.68z" fill="#fff"/>
	<path d="m222.06 126.42c-2.896 5.104-5.073 10.926-10.08 13.92 0.059-1.221 0.698-1.861 1.92-1.92 0.431-2.677 2.312-4.727 3.84-7.2 1.11-1.79 2.13-4.52 4.32-4.8z" fill="#fff"/>
	<path d="m201.9 184.02c3.279-6.644 11.312-11.084 12.96-17.76 5.647-3.312 9.037-8.884 13.92-12.962-3.116-2.562-5.499 3.294-9.12 3.361-2.192 1.805-4.608 3.389-6.239 5.76-0.773 0.136-0.825-0.455-1.438-0.479-1.3 2.381-3.899 3.461-5.28 5.762-1.018-0.742 1.562-1.93 1.92-2.881-7.729 3.789-11.925 11.113-18.72 15.84 1.256-1.625 2.717-3.043 3.84-4.801-10.854 8.666-19.994 19.047-30.239 28.32 2.792 0.231 3.351-1.771 4.319-3.359 8.233-5.527 13.907-13.613 21.602-19.682-2.58 3.569-5.971 6.271-9.119 9.602-9.077 9.59-18.031 20.393-27.842 27.359 0.48-4.521 7.474-6.58 9.119-11.521 1.307-0.297 2.248-0.953 2.881-1.92-6.786 1.69-7.796 9.164-14.398 11.039 0.271-5.045 8.096-6.599 10.08-11.521 8.334-5.906 15.677-12.805 22.56-20.16-11.619 9.34-22.642 19.277-33.6 29.279-3.267-2.176-3.812-7.07-7.68-8.641 12.625-8.975 24.739-18.459 38.397-26.4 0.062-0.859-0.587-1.012-0.479-1.92 1.581-0.178 2.396-1.12 3.357-1.92-0.301-1.748-2.425 1.295-1.92-0.959 5.592-2.248 9.809-5.873 14.88-8.641-0.417-1.396-0.719-0.539-1.92-0.48 0.944-1.566 4.534 0.254 5.28-2.398-0.826-1.916-3.119 2.814-3.36 0 5.173-1.389 7.889-5.233 12.48-7.198-7.449 1.991-14.246 8.793-21.602 12.479 1.148-2.822 4.808-3.296 7.199-4.802 9.365-5.889 19.418-13.81 28.32-20.639 1.88-0.28 1.226 1.975 2.398 2.4 0.774 0.136 0.826-0.454 1.439-0.48 0.167-2.407-2.124-2.355-2.399-4.32 0.104-3.737 4.871-2.809 5.762-5.76 2.515 2.925 5.746 5.133 7.198 9.12-1.764-0.157-1.386-2.454-3.358-2.4-0.914 1.264 1.33 2.578 1.438 4.32-0.748 0.692-0.945 1.933-2.881 1.44 0.078 0.562 0.875 0.405 1.44 0.48-1.592 3.4-3.895-0.388-5.761-0.96-0.37 1.822 2.934 4.099 3.841 6.239 2.87-0.649 3.579-3.46 6.238-4.319-0.493 3.13-2.961 3.088-4.801 4.319-7.619 5.104-14.006 13.826-18.72 20.16-2.039 2.737-5.497 5.062-7.68 7.682-1.36 1.65-1.55 4.8-4.32 4.32zm20.16-30.72c0.717 0.762 2.734 0.7 2.398-0.962-1.19-0.07-2.32-0.08-2.4 0.96z" fill="#fff"/>
	<path d="m202.39 185.46c-0.816 0.943-1.475 2.048-2.882 2.4-4.616 8.35-11.408 16.514-17.761 24.479-0.061 0.861 0.588 1.013 0.48 1.921-1.288-0.63-3.305 1.938-3.842 2.879-4.439 7.791-10.233 16.309-16.801 21.602-0.041-3.887 5.593-6.244 6.723-10.561 4.803-3.197 6.824-9.175 11.039-12.961 4.734-10.474 15.098-20.209 22.079-31.199 0.59 0.21 0.98 0.62 0.96 1.44z" fill="#fff"/>
	<path d="m31.985 143.22c0.553-0.83 2.266 1.222 2.88 1.92-1.101 1.38-2.061-1.42-2.88-1.92z" fill="#fff"/>
	<path d="m236.47 143.7c1.351-1.626 1.293 2.195 1.922 2.88-0.78 1.06-1.08-2.4-1.92-2.88z" fill="#fff"/>
	<path d="m53.105 144.18c0.818 0.544-2.165 1.323-2.4 2.4-0.408 0.088-0.453-0.188-0.479-0.48 0.088-0.409-0.188-0.453-0.48-0.48 0.789-0.81 2.604-0.59 3.359-1.44z" fill="#fff"/>
	<path d="m52.625 146.1c1.479-0.336 0.922-0.336 2.4 0-0.642 0.8-2.134 0.746-2.88 1.44-1.634-0.51 1.336-0.14 0.48-1.44z" fill="#fff"/>
	<path d="m78.065 147.06c-0.804 2.556-2.046 4.674-4.32 5.76 1.715-1.64 2.104-4.61 4.32-5.76z"/>
	<path d="m59.825 149.94c0.252 1.397-3.883 3.399-6.24 2.399 2.235-0.64 4.815-0.94 6.24-2.4z" fill="#fff"/>
	<path d="m39.186 151.86c0.742-1.173 3.627-0.467 3.358 0.959 1.396-0.418 0.54-0.719 0.48-1.92 1.805-0.162 4.95 2.534 1.92 2.881 0.521-2.166-2.255 0.266-4.32 0.479 0.584 0.695 1.917 0.646 1.92 1.92 0.223-1.219 1.521-1.358 2.4-1.92 2.377 1.807 2.293 0.603 5.76 0.48-1.136 1.088-0.929 1.742 0.96 1.92-4.25 1.311-8.724-0.805-13.92 0.479-0.177-0.815 0.374-0.904 0.96-0.959-0.683-1.477-0.215-2.158 0.48-3.358 0.859-0.062 1.012 0.586 1.92 0.479 0.389-0.093 0.479-0.481 0.96-0.479-0.59-0.68-1.649-0.91-2.878-0.96z" fill="#fff"/>
	<path d="m184.62 167.7c-1.476 1.084-2.691 2.426-4.8 2.879 1.29-1.27 2.66-2.46 4.8-2.88z" fill="#fff"/>
	<path d="m183.19 170.58c-1.401 1.479-3.447 2.312-5.28 3.358 1.33-1.54 2.83-2.92 5.28-3.36z" fill="#fff"/>
	<path d="m202.86 170.58c-2.478 3.763-6.321 6.158-9.12 9.601 1.05-3.28 5.88-6.91 9.12-9.6z" fill="#fff"/>
	<path d="m166.86 179.22c1.775-0.154 5.585-2.408 7.681-3.841-0.674-1.397-1.652 0.851-2.881 0.48 0.543-1.06 0.553-2.648 1.92-2.882-0.184 2.306 2.125-0.885 1.44 1.92 1.478 0.357 0.923-1.317 2.398-0.961-12.531 9.068-28.229 14.972-40.801 24 0.624-1.936 3.252-1.866 3.841-3.84-2.276-0.197-2.349 1.812-4.318 1.92-0.812-5.334 7.94-5.145 10.56-8.641 1.469 0.35 1.412-0.826 2.88-0.479 2.66-2.461 6.397-3.844 10.08-5.279-6.146 4.092-13.68 6.799-18.72 12 6.18-2.623 13.73-8.025 20.64-11.521 0.179-0.815-0.374-0.903-0.96-0.959 2.948-2.014 6.531-3.391 9.603-5.279 1.28 1.62-2.63 2.15-3.36 3.36z" fill="#fff"/>
	<path d="m176.94 176.34c0.717 0.976-5.812 2.757-6.72 5.281-0.147 0.976 1.387-0.101 1.438-0.479-8.722 7.438-21.401 15.076-31.68 22.561-1.093-2.643 2.062-4.029 4.32-4.8 7.688-6.229 17.341-10.499 24.96-16.802-0.675-1.396-1.654 0.854-2.882 0.479 3.38-2.23 6.77-4.43 10.56-6.24z" fill="#fff"/>
	<path d="m176.94 178.26c-0.878 1.521-2.646 2.153-4.32 2.881 1.22-1.18 2.32-2.48 4.32-2.88z" fill="#fff"/>
	<path d="m43.505 184.5c1.986 1.688 0.752-0.603 3.36-0.479-0.88 2.762-0.778 8.371 1.44 9.602 0.373-2.207-1.903-6.102-0.48-9.602-0.061-1.188 0.588-0.814 0.48 0 0.157 10.881 9.31 12.771 16.8 16.319 2.035-0.112 3.802 0.039 4.318 1.441-1.139 3.141-8.304 2.809-13.92 2.397-9.108-0.662-20.532-3.108-25.438-5.76-4.66 0.18-7.088-1.873-9.12-4.32 3.79-5.811 15.549-0.858 21.6-5.76-0.206 0.914-1.032 1.205-0.96 2.4 2.003-0.078 2.226-1.938 2.4-3.842-0.427 0.213-0.858 0.422-0.96 0.961-0.587-0.01 0.122-2.71 0.48-3.36zm-5.279 14.88c-3.688-0.639-7.893-3.303-11.521-2.399 3.292 1.04 8.431 2.77 11.521 2.4zm8.159 2.4c0.222-1.5-1.023-1.535-2.398-1.441-0.178 1.46 1.562 1 2.398 1.44zm12 0.96c-1.104-2.598-5.133-0.168-7.198-1.439 1.133 1.75 4.695 1.07 7.198 1.44zm3.361 0c1.147-0.293 3.482 0.604 3.84-0.479-1.246-0.48-3.215-0.84-3.84 0.48z" fill="#fff"/>
	<path d="m163.98 184.02c-1.177 0.903-2.174 1.985-3.84 2.399 0.41-1.67 2.37-1.79 3.84-2.4z" fill="#fff"/>
	<path d="m41.105 184.98c0.759 1.229-2.918 4.25-4.8 2.883-0.081-1.041 1.7-0.219 2.398-0.48-1.176-0.639 0.527-1.785-0.479-1.92 0.851-1.31 2.032 1.67 2.881-0.48z" fill="#fff"/>
	<path d="m186.55 192.66c-1.799 4.939-9.606 12.141-14.881 16.801 4.42-6.13 9.87-11.24 14.88-16.8z" fill="#fff"/>
	<path d="m183.66 189.3c1.131 1.161-1.58 2.555-2.397 3.358-0.081 1.041 1.7 0.217 2.397 0.479-2.181 1.979-3.052 5.269-6.239 6.238 0.85-1.551 1.883-2.918 3.359-3.84-2.553-0.941-3.807 3.545-6.239 4.32-0.356 1.479 1.317 0.922 0.96 2.398-2.72-1.099-3.81 0.965-5.278 2.399-0.433-2.808 3.057-3.91 4.8-5.761 2.91-3.07 5.71-6.87 8.64-9.6z" fill="#fff"/>
	<path d="m166.39 211.38c-0.449 2.111-3.062 2.06-3.36 4.32 4.138-0.504 4.98-4.299 8.16-5.763-3.189 4.974-7.243 9.078-12 12.48 0.427-1.014 1.461-1.42 1.438-2.881-2.729-0.01-2.467 2.975-5.277 2.881 1.068-1.863-0.816-1.129-1.44-2.4 4.621-5.139 10.058-9.461 14.4-14.879 3.039 1.486 3.225-1.172 5.277-1.92-0.176 2.383-1.994 3.125-3.357 4.318-0.713-0.209 0.188-0.613 0-1.439-5.802 3.642-9.438 9.445-14.4 13.92 4.58-0.69 5.81-6.24 10.56-8.64zm-5.77 7.2c1.122-0.158 1.983-0.576 2.881-0.959-0.073-0.565 0.082-1.362-0.479-1.44-0.71 0.88-2 1.2-2.4 2.4z" fill="#fff"/>
	<path d="m49.266 208.98c0.391-1.688 1.316-2.84 2.398-3.84 4.332 0.416 6.952 0.619 10.08 1.44-1.332 4.465-5.719 8.312-10.08 8.16-1.304-0.345 0.343 2.262-0.96 1.92-1.594-0.1 1.156-6.56-1.438-7.68z" fill="#fff"/>
	<path d="m62.226 210.9c2.932 9.555-5.157 20.125-11.04 26.881-2.29 2.629-6.235 5.822-9.602 8.639-5.933 4.965-12.81 8.625-19.198 12.961-0.051-2.029-1.292-2.867-2.882-3.359-2.052-0.133-2.445 1.394-3.358 2.398-0.402 2.322 0.443 3.396 0.96 4.801-2.034 1.57-5.306 5.65-8.16 3.359 1.935-0.576 1.124-3.156 1.44-6.24 6.481-9.096 19.348-13.688 28.8-20.639 9.502-6.99 15.502-18.78 23.04-28.8z" fill="#fff"/>
	<path d="m66.065 221.46c-1.493 2.507-3.194 4.806-5.76 6.24 2.174-1.82 2.095-5.9 5.76-6.24z" fill="#fff"/>
	<path d="m58.865 229.62c1.091 1.068-1.61 2.951-0.48 4.318-0.979 0.838-0.939-0.357-1.92 0.479-2.122 1.548-2.915 4.132-4.8 6.24-3.268 3.655-8.396 6.524-9.12 11.039-2.918-0.332-7.462 3.394-7.198 6.239-4.879 0.597-9.27 5.746-14.4 7.681 12.111-12.52 28.602-20.67 37.918-36z" fill="#fff"/>
	<path d="m131.34 274.74c-11.036-0.645-17.265-6.098-23.04-12-0.055-1.193-0.9-1.486 0-2.4-3.936-2.139-8.167-6.266-12.48-8.639-6.234-3.432-22.743-8.846-12.479-17.762-1.16-2.369-2.848 1.139-4.802 0.961-1.417-2.367-2.84-6.09-0.96-9.119 4.596 0.014 7.321 2.916 7.2 6.238 4.798 3.521 9.11 7.528 14.88 10.08 2.74-2.502-1.814-4.082-2.398-6.238-6.333 0.879-11.412-7.344-12-15.361 0.76-1.639 2.769-2.029 4.318-2.879 0.914 2.604 3.71 3.33 5.28 5.279-0.202-2.258-9.832-13.625-0.96-15.842 6.197-1.547 8.361 4.795 13.92 5.762-0.82-2.156-1.771-3.074-1.44-7.199 5.51-4.717 9.775-1.201 15.842 0.959 2.778 0.99 6.375 1.828 8.158 2.881 3.057 1.803 5.096 5.557 8.161 7.199 5.234 2.807 10.469 6.482 14.399 10.08-5.605-10.875-20.427-12.533-25.92-23.521 0.607-4.511 0.53-9.709 4.32-11.039 4.878 4.241 4.84 13.399 12 15.358 0.061 5.742 5.077 8.11 9.118 12 1.685 1.619 1.467 3.877 2.399 6.722 1.216 3.694 4.161 8.717 4.8 12.479 1.811 10.647-2.127 20.728-5.76 29.278-3.402 8.011-12.465 24.943-21.6 12.959-0.39-3.03-0.01-4.3-0.96-6.24zm-7.67-54.72c-2.208-2.244-2.54-5.629-3.358-8.158h-1.44c-0.21 4.21 1.92 8.64 4.8 8.16zm-7.69-3.36c0.23-1.512-1.473-1.086-0.96-2.879h-5.28c1.06 1.99 3.5 2.59 6.24 2.88zm-12.48 9.6c-0.688-0.75-1.209-1.671-2.398-1.921v2.4c1.983 0.414 2.414 2.387 4.318 2.881 0.403-0.56 0.635-1.287 0.48-2.399-2.824-0.035 0.104-0.175-0.48-1.92-0.716-1.205-2.153-1.687-3.358-2.398-0.2 1.52 2.64 2.44 1.44 3.36zm2.88-2.88c1.003 3.158 2.365 5.955 5.28 7.199-0.729-2.541-1.709-4.326-1.438-6.719-0.93-0.56-2.68-1.57-3.84-0.48zm0.96 18.24c-2.615-2.186-3.356-6.244-6.24-8.16-2.118 3.88 2.2 7.49 6.24 8.16zm-11.515 3.36c0.543 4.897 4.101 6.781 8.16 8.16-1.797-2.843-5.403-3.877-5.28-8.64-1.178-0.06-2.307-0.07-2.875 0.48z" fill="#fff"/>
	<path d="m104.46 282.42c-3.268 2.211-5.979 7.408-9.6 7.681 3.47-2.29 5.73-5.79 9.6-7.68z" fill="#fff"/>
	<path d="m101.1 286.74c1.472 0.471-0.552 1.279-0.48 1.92 1.375-0.705 2.396-1.766 3.36-2.879 1.381 1.881-2.858 2.244-2.88 4.318 3.323-0.683 6.199-5.959 9.6-8.16-1.115-0.926-3.129 1.33-3.84 2.399-1.881-0.791 3.62-2.315 0.48-2.881 0.554-0.873 3.786-1.584 3.84-0.479 1.94-0.615 2.644-2.476 4.8-2.879-4.931 4.901-9.764 12.217-16.8 13.438-1.474-0.472 0.551-1.281 0.479-1.92-1.408-0.554-1.783 2.303-2.398 0.961 0.945-1.62 2.789-2.34 3.839-3.84z" fill="#fff"/>
	<path d="m94.865 287.7c-0.352-2.283 4.157-3.838 5.76-5.762-0.479-1.277-1.938-1.582-2.88-2.398 7.132-5.389-6.005-9.611-2.88-2.881-1.461 0.021-1.866-1.014-2.88-1.439 1.271-3.848 6.183-4.059 6.72-8.641 2.411 1.59 5.017 2.984 5.76 6.24-2.631 0.891-5.509 4.443-2.88 7.68 1.867-0.691 2.209-2.91 4.32-3.359-2.84 4.36-7.707 6.69-11.035 10.56zm2.881-15.84c1.634 0.443 2.815 1.344 5.28 0.959-0.12-3.04-4.946-4.64-5.284-0.96z"/>
	<path d="m113.1 275.7c0.545 0.09 0.267 0.48 0 0.479 0.078 0.562 0.875 0.404 1.438 0.48 0.266 1.062-0.917 0.684-0.96 1.438-0.467-0.013-0.373-0.586-0.479-0.959-0.861-0.062-1.015 0.588-1.92 0.479 0.05-1.23 1.88-0.68 1.92-1.92z" fill="#fff"/>
	<path d="m83.825 291.54c0.949-0.812 2.996-0.524 4.32-0.961 0.224 0.918-1.479 2.065 0.479 1.92-1.244 1.22-2.844-1.29-4.799-0.96z" fill="#fff"/>
	<path d="m215.82 117.78c2.192 0.848 1.021 5.06 2.88 6.24-8.312 19.367-27.324 28.037-41.279 41.761-1.155-0.197-1.044 0.875-2.398 0.479-0.476 2.777-4.438 5.217-8.16 6.24-4.209 4.271-9.458 7.502-14.88 10.561-0.623-1.151-2.446-5.633-0.479-6.239-3.222-3.658-2.209-11.552-6.721-13.92-3.945 1.812-4.068 12.03-2.397 16.319 1.689-2.889 3.486-5.895 2.397-12.479 3.09 4.192 2.329 11.565 5.761 16.319-3.534 2.545-7.848 4.312-12 6.24 3.446-7.127 0.16-18.033 0.96-25.922 1.052-1.67 4.32-1.117 4.802-3.359 7.166-3.092 15.763-4.901 23.04-8.641 1.74-0.895 2.961-2.797 4.8-3.839 6.211-3.519 13.172-6.229 19.2-10.56 6.346-4.56 12.656-9.087 18.237-13.44 1.932-1.505 4.098-3.426 5.28-5.76h0.96zm-63.84 56.64c1.588-1.551 0.538-5.469-0.479-7.198-0.16 3.38-0.58 6.44 0.48 7.2z" fill="#fff"/>
	<path d="m87.186 120.18c1.336 4.28-2.399 7.01 0 10.08-0.472 0.65-1.618 0.622-1.92 1.44-0.501 12.695-6.125 26.758-17.762 28.319 0.44-1.479 1.994-1.847 1.44-4.318-3.219-2.922-5.595 0.461-9.6-0.479 1.896-0.981 4.247-1.514 6.238-2.399-0.407-1.408-1.208 0.625-2.398 0 6.766-8.807 13.384-19.191 12-31.2 0.053-0.907 1.587-0.333 1.438-1.44-1.934-2.24-8.877-1.442-11.04-1.92-0.874-1.605-1.058-2.636 0-4.32 8.533 0.75 15.198 3.37 21.604 6.24zm-9.601 7.68c-2.879 9.121-5.812 18.186-12 24 6.946-3.615 9.319-11.803 12-19.682 1.36 0.501 2 0.501 3.36 0-0.654-2.984 0.995-6.284 0.96-10.08 0.907-0.213 2.893 0.653 2.4-0.96-2.199 0.103-4.834-1.864-6.722-0.479 0.841 0.438 2.396 0.165 2.88 0.96 0.868 2.728-0.205 5.379-1.438 9.12-0.826-0.189-1.23 0.712-1.44 0 1.188-3.054 1.211-4.686 1.44-8.16-2.452-0.21-1.084 3.4-1.44 5.28zm0.48 18.24c3.557-6.012 6.174-14.179 5.76-21.6-1.004 7.85-4.379 15.72-5.76 21.6zm-2.399-0.96c1.854-2.549 4.452-8.649 2.88-11.52-0.059 4.43-3.752 7.77-2.88 11.52zm-1.92 7.68c2.274-1.086 3.518-3.205 4.32-5.76-2.217 1.15-2.606 4.12-4.32 5.76zm-5.761 0.48c2.665-0.216 3.438-2.322 4.8-3.841-2.349 0.53-3.021 2.74-4.8 3.84z" fill="#fff"/>
	<path d="m53.585 157.62c3.232 1.443 2.345 5.539 1.44 8.641-3.055 2.488-8.11 2.646-12.96 3.84-3.892 0.955-9.416 0.763-14.88 1.92-4.281 0.906-8.083 3.527-12-0.479-0.438-3.517 0.598-7.889 3.358-9.601 11.924-2.06 22.873-3.34 35.042-4.32zm-10.56 4.32c1.826-0.199 4.48-0.549 6.72-1.439 0.292 0.762 0.301 4.561-0.96 5.281-2.557 0.414-3.59-0.295-4.8 0.959 1.887 0.787 4.556-0.131 6.72-0.479-1.535-3.033 1.298-4.854 0.48-6.721-2.244 1.28-6.854 0.19-8.16 2.4z" fill="#fff"/>
	<path d="m52.146 171.06c3.362 5.862-2.309 8.946-6.24 11.521-5.273-1.012-14.121 2.443-20.64 3.359 1.444 1.49 1.613 2.74-0.96 3.358 0.515-5.84-2.578-6.733-6.722-5.76-0.562-11.076 14.65-10.228 25.44-11.521-0.078-0.562-0.875-0.403-1.44-0.479 3.334-0.34 7.072-1.36 10.562-0.48zm-10.081 5.76c0.375-3.145 3.265-3.775 6.24-4.32-1.678 1.045-0.062 5.379-1.922 6.24h2.4c-1.288-2.918 0.583-5.385 0.48-6.721-3.748-0.06-9.248 0.67-7.198 4.8z" fill="#fff"/>
	<path d="m30.545 240.18c-0.755 0.364-0.717 1.522-1.92 1.44-1.195-0.922-3.398-2.728-4.8-1.92-1.438 0.313 0.459 1.024 0 1.92h-1.44c-4.055 4.104-7.596 8.724-10.078 14.397-2.168 0.713-2.323 3.438-3.842 4.802-0.117 5.018-0.69 0.1-0.479-1.439 1.436-10.438 13.845-18.598 18.24-27.36 1.625 1.504-0.795 3.02-0.48 4.803 0.485 1.352 2.039-0.135 2.88 0-0.383 0.45 0.727 2.08 1.919 3.36z" fill="#fff"/>
	<path d="m109.75 276.66c-5.363 2.318-10.231 9.285-15.84 12.961-11.84-4.16-16.927-15.074-24-24-0.081-4.32-1.963-9.996-1.92-14.881 1.795-0.748 3.739-2.078 1.92-3.84 3.309 1.232 5.053-2.4 7.2-3.842 3.207 0.635 5.143 2.537 6.24 5.28-3.234-0.034-3.101 3.302-6.722 2.88 0.335 2.864 2.017 4.385 2.88 6.721 1.379 0.1 2.438-0.121 2.882-0.961 1.479 0.899-1.217 1.621-1.44 2.399 0.428 2.134 2.035 3.086 2.88 4.802 1.698-0.162 2.473-0.027 2.88-0.479-1.211-1.351-3.234-1.886-3.84-3.841 0.153-1.127 1.486-1.075 1.92-1.922 1.233 0.047 0.688 1.875 1.92 1.922 2.784-1.043-1.354-2.807 0-3.842 2.521-0.278 3.052 1.429 3.36 3.359 3.737-1.322-1.173-3.926-0.96-6.238-2.992 0.049-2.984 3.096-5.76 3.359 1.028-1.967 5.888-3.729 2.88-6.721 0.154-1.594 2.094 1.264 2.398-0.48 1.088 1.047 2.83 3.682 0.96 3.842 1.562 0.521 2.742 1.418 3.84 2.398 1.577-1.299-1.312-2.174-0.96-3.84 1.908 0.332 2.369 2.109 3.842 2.881 0.032 1.635-1.412 1.787-2.4 2.398 0.354 1.086 1.83 1.051 1.92 2.399 0.648-1.271 0.761-3.08 1.92-3.84 0.845 0.435 0.793 1.767 1.92 1.92-0.352 0.854-0.873 0.067-1.438 0 2.309 2.457-1.397 5.687 1.438 6.72 1.083-0.355 0.188-2.691 0.48-3.841 1.971-0.657 1.921-0.838 4.318-0.479 1.124 2.273 2.08 3.089 1.44 6.24 2.31 0.57 2.943 2.816 3.84 4.801-0.721 0.72-2.021 0.857-2.398 1.92 0.787 1.218 1.604-1.559 3.358-0.961-1.896 2.576 0.917 1.302 2.4 2.882-0.752 1.606-6.05 3.383-3.84 4.799-2.113-0.082-2.6 1.524-4.802 2.399 1.55-1.96 3.31-3.72 5.28-5.28zm-36.004-20.16c-0.282 3.481 1.667 4.731 1.92 7.681 1.568-0.892 1.94-1.912 3.36-1.92-1.34-1.699-2.499-3.58-2.4-6.72-1.9-0.62-0.98 1.58-2.88 0.96zm11.52 9.12c-0.312 2.408 2.054 4.645 3.84 3.357-1.088-0.512-1.744-1.455-1.92-2.879 1.403 0.125 1.475-1.086 2.88-0.961 0.748 0.692 0.947 1.934 2.88 1.44 0.184-1.783-1.945-1.256-1.44-3.36 0.271-0.689 0.749-1.17 1.44-1.438 0.742 1.816 2.379 2.738 2.88 4.799 2.362-2.314-1.528-5.52-3.36-6.719-1.442 2.88-3.917 4.73-7.2 5.76zm17.754 0.48c0.245-1.162 3.143-2.121 0.96-2.879-0.19 0.81-2.26 2.16-0.96 2.88zm-25.915 1.44c2.846 2.188 3.745 6.97 8.64 5.761-0.309-1.451-0.75-2.771-2.398-2.882 0.06 1.201 0.917 1.504-0.48 1.921-1.742-0.437-0.292-1.417-0.479-2.88-1.119 0.146-2.067 1.022-2.399-0.479 0.634-0.006 0.438-0.842 0.96-0.961 0.954 0.008 0.61 1.311 1.92 0.961 0.294-3.666-4.153-3.06-3.36-4.801-2.135-0.21-2.616 1.23-2.404 3.36zm28.795 9.6c-2.111 0.448-2.453 2.668-4.32 3.358-2.629-3.233 0.249-6.789 2.88-7.68-0.743-3.257-3.349-4.65-5.76-6.24-0.538 4.582-5.448 4.793-6.72 8.642 1.014 0.426 1.419 1.461 2.88 1.438-3.125-6.731 10.012-2.508 2.88 2.881 0.942 0.815 2.399 1.121 2.88 2.397-1.604 1.925-6.11 3.479-5.76 5.763 3.333-3.87 8.2-6.2 11.04-10.56zm-16.795-5.76c0.704 1.134 3.705 0.543 2.88-1.44-1.43 0.01-2.924-0.04-2.88 1.44zm-1.439 8.16c-0.095-1.375-0.06-2.621 1.44-2.399-0.153 1.127-0.758 1.801-0.48 3.358 2.169-0.812 0.828-5.771-0.96-5.76-0.816 0.303-0.79 1.45-1.438 1.92-1.462-0.299-0.938-2.582-2.4-2.879-1.52 1.35 2.214 4.49 3.838 5.76zm15.834-2.88c1.767-0.314 2.393-1.77 3.36-2.879-1.44 0.64-2.96 1.2-3.36 2.88zm3.36-0.48c1.169-0.271 2.469-0.41 2.4-1.92-1.4 0.04-1.78 1.1-2.4 1.92z" fill="#fff"/>
	<path d="m76.625 255.54c-0.099 3.14 1.062 5.021 2.4 6.72-1.42 0.008-1.792 1.028-3.36 1.92-0.252-2.947-2.202-4.197-1.92-7.681 1.901 0.62 0.981-1.58 2.88-0.96zm0 6.72c1.092-1.23-0.15-3.039-0.96-3.841 0.149 1.46-0.533 3.74 0.96 3.84z"/>
<metadata><rdf:RDF><cc:Work><dc:format>image/svg+xml</dc:format><dc:type rdf:resource="http://purl.org/dc/dcmitype/StillImage"/><cc:license rdf:resource="http://creativecommons.org/licenses/publicdomain/"/><dc:publisher><cc:Agent rdf:about="http://openclipart.org/"><dc:title>Openclipart</dc:title></cc:Agent></dc:publisher></cc:Work><cc:License rdf:about="http://creativecommons.org/licenses/publicdomain/"><cc:permits rdf:resource="http://creativecommons.org/ns#Reproduction"/><cc:permits rdf:resource="http://creativecommons.org/ns#Distribution"/><cc:permits rdf:resource="http://creativecommons.org/ns#DerivativeWorks"/></cc:License></rdf:RDF></metadata></svg>
